<svg xmlns="http://www.w3.org/2000/svg" width="100" height="65" fill="none" viewBox="0 0 100 65">
    <path fill="#fff" d="M91.785 63.033H8.69c-3.792 0-6.793-3.318-6.793-7.425L1.58 9.005c0-4.108 3.001-7.425 6.635-7.425H91.31c3.792 0 6.793 3.317 6.793 7.425l.316 46.445c0 4.265-3.001 7.583-6.635 7.583z"/>
    <path fill="#E2231A" d="M91.785 64.613H8.69c-4.582 0-8.373-4.108-8.373-9.005L0 9.005C0 6.477.948 4.107 2.686 2.37 4.266.79 6.16 0 8.215 0H91.31c4.582 0 8.373 4.107 8.373 9.005L100 55.45c0 2.528-.948 4.898-2.686 6.635-1.421 1.738-3.475 2.528-5.529 2.528zM8.215 3.16c-1.264 0-2.37.473-3.318 1.421C3.791 5.687 3.16 7.267 3.16 9.005l.316 46.445c0 3.318 2.37 5.845 5.213 5.845h83.096c1.264 0 2.37-.474 3.318-1.421 1.106-1.106 1.737-2.686 1.737-4.424l-.316-46.445c0-3.318-2.37-5.845-5.213-5.845H8.215z"/>
    <path fill="#E2231A" stroke="#E2231A" stroke-miterlimit="10" stroke-width="2" d="M98.42 55.608c0 4.108-3.001 7.425-6.635 7.425H8.69c-3.791 0-6.793-3.317-6.793-7.425h96.525z"/>
    <path fill="#E2231A" d="M22.275 32.07v13.586h-2.212v-9.004-.948c0-.316 0-.632.158-1.106-.158.316-.316.632-.316.948-.158.316-.316.474-.474.79l-5.845 8.689c0 .157-.158.157-.158.316 0 .157-.158.157-.158.157s-.158.158-.316.158H10.9V32.07h2.212V42.023c0 .316 0 .632-.158 1.106.158-.316.316-.632.316-.948 0-.316.316-.474.316-.79l5.845-8.689c0-.158.158-.158.158-.316s.158-.158.158-.158c.158 0 .158-.158.316-.158H22.275zM36.809 32.07v13.586h-2.212v-9.004-.948c0-.316 0-.632.158-1.106-.158.316-.316.632-.316.948-.158.316-.316.474-.474.79l-5.845 8.689c0 .157-.158.157-.158.316 0 .157-.158.157-.158.157s-.158.158-.316.158h-2.053V32.07h2.211V42.023c0 .316 0 .632-.158 1.106.158-.316.316-.632.316-.948 0-.316.316-.474.316-.79l5.845-8.689c0-.158.158-.158.158-.316s.158-.158.158-.158c.158 0 .158-.158.316-.158H36.81zM49.447 42.655c.158 0 .158 0 .316.158l.948.947c-.632.632-1.264 1.264-2.054 1.58-.79.316-1.738.474-2.844.474-.948 0-1.895-.158-2.685-.474-.79-.316-1.422-.79-2.054-1.422-.632-.632-.948-1.421-1.264-2.211-.316-.79-.474-1.738-.474-2.844 0-.948.158-1.896.474-2.843.316-.79.79-1.58 1.422-2.212.632-.632 1.264-1.106 2.054-1.422.79-.316 1.737-.474 2.685-.474s1.896.158 2.686.474a5.68 5.68 0 0 1 1.896 1.264l-.79 1.106-.158.158h-.316c-.158 0-.316 0-.474-.158-.158-.158-.316-.316-.632-.316-.316-.158-.632-.316-.948-.316-.316-.158-.79-.158-1.422-.158-.632 0-1.263.158-1.737.316-.474.158-.948.632-1.422.948-.316.474-.632.948-.948 1.58-.158.631-.316 1.263-.316 2.053s.158 1.58.316 2.212c.158.632.474 1.106.948 1.58s.79.79 1.422.947c.474.159 1.105.316 1.737.316h.948c.316 0 .632-.157.79-.157.316-.159.474-.159.79-.317.158-.158.474-.316.632-.473.316-.316.474-.316.474-.316z"/>
</svg>
