<svg xmlns="http://www.w3.org/2000/svg" width="60" height="60" fill="none" viewBox="0 0 60 60">
    <path fill="#EC231A" d="M31.5 0h-24C3.375 0 0 3.375 0 7.5v45C0 56.625 3.375 60 7.5 60h24c4.125 0 7.5-3.375 7.5-7.5v-45C39 3.375 35.625 0 31.5 0zm-24 3.75h24a3.761 3.761 0 0 1 3.75 3.75H3.75A3.761 3.761 0 0 1 7.5 3.75zm27.75 7.5v37.5H3.75v-37.5h31.5zm-3.75 45h-24a3.761 3.761 0 0 1-3.75-3.75v-.188h31.5v.188a3.761 3.761 0 0 1-3.75 3.75zM60 18.937H43.5v3.75H60v-3.75zM54.75 28.312H43.5v3.75h11.25v-3.75zM49.5 37.5h-6v3.75h6V37.5z"/>
    <path fill="#EC231A" d="M10.125 30.187l4.125 4.125 9.563-9.562 3.75 3.75 4.5-4.688v-5.25l-4.5 4.5-3.75-3.75-9.563 9.75-4.125-4.125-3.375 3.375v5.438l3.375-3.563z"/>
</svg>
