<svg xmlns="http://www.w3.org/2000/svg" width="36" height="36" fill="none" viewBox="0 0 36 36">
    <path fill="#A8D0E3" d="M27 2.25c3.75 0 6.75 3 6.75 6.75v18c0 3.75-3 6.75-6.75 6.75H9c-3.75 0-6.75-3-6.75-6.75V9c0-3.75 3-6.75 6.75-6.75h18zM27 0H9C4.05 0 0 4.05 0 9v18c0 4.95 4.05 9 9 9h18c4.95 0 9-4.05 9-9V9c0-4.95-4.05-9-9-9z"/>
    <path fill="#A8D0E3" d="M12.825 11.025c.9 0 1.65.75 1.65 1.725 0 .9-.75 1.725-1.65 1.725-.9 0-1.65-.75-1.65-1.725-.075-.975.675-1.725 1.65-1.725zm0-2.25c-2.175 0-3.9 1.8-3.9 3.975s1.8 3.975 3.9 3.975c2.175 0 3.9-1.8 3.9-3.975S15 8.775 12.825 8.775zM23.325 21.675c.9 0 1.65.75 1.65 1.725 0 .9-.75 1.725-1.65 1.725-.9 0-1.65-.75-1.65-1.725 0-.975.75-1.725 1.65-1.725zm0-2.325c-2.175 0-3.9 1.8-3.9 3.975s1.8 3.975 3.9 3.975c2.1 0 3.9-1.8 3.9-3.975.075-2.175-1.725-3.975-3.9-3.975zM24.596 9.83L9.407 25.083l1.595 1.588L26.19 11.418 24.595 9.83z"/>
</svg>
