<svg xmlns="http://www.w3.org/2000/svg" width="22" height="4" fill="none" viewBox="0 0 22 4">
    <path fill="#C4C4C4" d="M0 2.008c0-.276.052-.537.155-.78C.269.982.419.77.602.59c.195-.181.424-.324.688-.43.264-.107.545-.16.843-.16.298 0 .579.053.843.16.264.106.493.249.688.43.195.18.35.393.464.637.115.244.172.505.172.781 0 .287-.057.552-.172.797-.114.234-.27.44-.464.621-.195.18-.424.319-.688.415-.264.106-.545.159-.843.159-.298 0-.58-.053-.843-.16a2.005 2.005 0 0 1-.688-.414 2.266 2.266 0 0 1-.447-.621A2.027 2.027 0 0 1 0 2.008zm17.7 0c0-.276.051-.537.155-.78a2.19 2.19 0 0 1 .447-.638c.195-.181.424-.324.688-.43.264-.107.545-.16.843-.16.298 0 .579.053.843.16.263.106.493.249.688.43.194.18.35.393.464.637.115.244.172.505.172.781 0 .287-.057.552-.172.797-.115.234-.27.44-.464.621-.195.18-.425.319-.689.415-.263.106-.544.159-.842.159-.298 0-.58-.053-.843-.16a2.005 2.005 0 0 1-.688-.414 2.264 2.264 0 0 1-.447-.621 2.027 2.027 0 0 1-.155-.797zm-8.859 0c0-.276.052-.537.155-.78.115-.245.264-.458.447-.638.195-.181.425-.324.688-.43.264-.107.545-.16.843-.16.298 0 .58.053.843.16.264.106.493.249.688.43.195.18.35.393.464.637.115.244.173.505.173.781 0 .287-.058.552-.172.797-.115.234-.27.44-.465.621-.195.18-.424.319-.688.415-.264.106-.545.159-.843.159-.298 0-.579-.053-.843-.16a2.005 2.005 0 0 1-.688-.414 2.266 2.266 0 0 1-.447-.621 2.027 2.027 0 0 1-.155-.797z"/>
</svg>
