<svg xmlns="http://www.w3.org/2000/svg" width="90" height="58" fill="none" viewBox="0 0 90 58">
    <path fill="#fff" fill-rule="evenodd" d="M82.567 56.364H7.774c-3.344 0-6.074-3.008-6.098-6.719L1.422 7.79c-.024-3.71 2.666-6.72 6.01-6.72h74.794c3.344 0 6.073 3.01 6.099 6.72l.254 41.855c.023 3.711-2.667 6.72-6.011 6.72z" clip-rule="evenodd"/>
    <mask id="a" width="90" height="59" x="0" y="-1" maskUnits="userSpaceOnUse">
        <path fill="#fff" d="M0-.352h90v58.138H0V-.352z"/>
    </mask>
    <g mask="url(#a)">
        <path fill="#E2231A" fill-rule="evenodd" d="M8 3c-1.54 0-2.613.46-3 1-1.443 1.292-2.01 2.733-2 4v42c.273 2.64 2.362 5 5 5h74c1.542 0 2.614-.46 3-1 1.444-1.291 2.01-2.732 2-4V8c-.273-2.64-2.362-5-5-5H8zm75 55H8c-4.342 0-7.716-3.64-8-8V8c-.014-2.14.855-4.324 2-6C3.76.76 5.553 0 7 0h75c4.343 0 7.717 3.64 8 8v42c.015 2.141-.854 4.324-2 6-1.757 1.24-3.55 2-5 2z" clip-rule="evenodd"/>
    </g>
    <path fill="#E2231A" d="M21.66 28.319v1.58h-6.89v5.01h5.89v1.58h-5.89v6.16h-1.94v-14.33h8.83zm12.976 14.33h-1.5a.645.645 0 0 1-.42-.13.8.8 0 0 1-.24-.33l-1.34-3.46h-6.43l-1.34 3.46a.702.702 0 0 1-.23.32.638.638 0 0 1-.42.14h-1.5l5.73-14.33h1.96l5.73 14.33zm-9.39-5.32h5.35l-2.25-5.83a7.383 7.383 0 0 1-.22-.6l-.21-.73c-.066.26-.136.506-.21.74a5.63 5.63 0 0 1-.21.6l-2.25 5.82zm24.154-1.84c0 .673-.07 1.316-.21 1.93a7.233 7.233 0 0 1-.59 1.69c-.26.52-.576.993-.95 1.42a6.429 6.429 0 0 1-1.26 1.11l3.67 3.97h-1.6c-.24 0-.453-.034-.64-.1a1.276 1.276 0 0 1-.51-.35l-2.51-2.74c-.38.12-.776.213-1.19.28-.406.066-.833.1-1.28.1-1.053 0-2.013-.177-2.88-.53a6.504 6.504 0 0 1-2.23-1.51 6.776 6.776 0 0 1-1.44-2.31c-.34-.9-.51-1.887-.51-2.96 0-1.074.17-2.057.51-2.95.34-.9.82-1.674 1.44-2.32a6.438 6.438 0 0 1 2.23-1.52c.867-.36 1.827-.54 2.88-.54 1.054 0 2.014.18 2.88.54.874.36 1.62.866 2.24 1.52.62.646 1.1 1.42 1.44 2.32.34.893.51 1.876.51 2.95zm-1.99 0c0-.88-.12-1.67-.36-2.37-.24-.7-.58-1.29-1.02-1.77a4.397 4.397 0 0 0-1.6-1.12c-.626-.26-1.326-.39-2.1-.39-.766 0-1.463.13-2.09.39a4.492 4.492 0 0 0-1.61 1.12c-.44.48-.78 1.07-1.02 1.77s-.36 1.49-.36 2.37c0 .88.12 1.67.36 2.37.24.693.58 1.283 1.02 1.77.447.48.984.85 1.61 1.11.627.253 1.324.38 2.09.38.774 0 1.474-.127 2.1-.38.627-.26 1.16-.63 1.6-1.11.44-.487.78-1.077 1.02-1.77.24-.7.36-1.49.36-2.37z"/>
</svg>
