<svg xmlns="http://www.w3.org/2000/svg" width="92" height="31" fill="none" viewBox="0 0 92 31">
    <path fill="#EA4335" d="M39.44 16.015c0 4.335-3.403 7.53-7.58 7.53-4.178 0-7.582-3.195-7.582-7.53 0-4.365 3.404-7.529 7.581-7.529 4.178 0 7.582 3.164 7.582 7.53zm-3.318 0c0-2.708-1.973-4.562-4.263-4.562s-4.263 1.854-4.263 4.562c0 2.682 1.973 4.563 4.263 4.563s4.263-1.884 4.263-4.563z"/>
    <path fill="#FBBC05" d="M55.796 16.015c0 4.335-3.404 7.53-7.581 7.53-4.178 0-7.582-3.195-7.582-7.53 0-4.362 3.404-7.529 7.582-7.529 4.177 0 7.581 3.164 7.581 7.53zm-3.319 0c0-2.708-1.972-4.562-4.262-4.562-2.29 0-4.263 1.854-4.263 4.562 0 2.682 1.973 4.563 4.263 4.563s4.262-1.884 4.262-4.563z"/>
    <path fill="#4285F4" d="M71.47 8.941v13.517c0 5.56-3.291 7.831-7.183 7.831-3.663 0-5.867-2.44-6.699-4.436l2.89-1.199c.514 1.226 1.775 2.672 3.806 2.672 2.49 0 4.034-1.531 4.034-4.413V21.83h-.115c-.743.913-2.174 1.711-3.98 1.711-3.78 0-7.241-3.279-7.241-7.498 0-4.25 3.462-7.557 7.24-7.557 1.803 0 3.234.798 3.98 1.684h.116V8.945h3.152V8.94zm-2.916 7.102c0-2.652-1.776-4.59-4.035-4.59-2.29 0-4.208 1.938-4.208 4.59 0 2.623 1.918 4.535 4.208 4.535 2.26 0 4.034-1.912 4.034-4.535z"/>
    <path fill="#34A853" d="M76.667 1.018v22.065H73.43V1.018h3.237z"/>
    <path fill="#EA4335" d="M89.28 18.493l2.577 1.711c-.832 1.226-2.835 3.337-6.297 3.337-4.293 0-7.5-3.306-7.5-7.529 0-4.477 3.234-7.53 7.129-7.53 3.922 0 5.84 3.11 6.467 4.79l.344.856-10.103 4.169c.773 1.51 1.976 2.28 3.663 2.28 1.69 0 2.862-.828 3.72-2.084zm-7.928-2.708l6.753-2.794c-.371-.94-1.489-1.596-2.804-1.596-1.687 0-4.034 1.484-3.95 4.39z"/>
    <path fill="#4285F4" d="M11.902 13.897v-3.194h10.805c.106.557.16 1.215.16 1.928 0 2.397-.658 5.36-2.777 7.471-2.061 2.139-4.695 3.28-8.184 3.28C5.438 23.381 0 18.133 0 11.69 0 5.248 5.438 0 11.905 0c3.578 0 6.127 1.399 8.042 3.221l-2.263 2.254c-1.373-1.283-3.233-2.28-5.782-2.28-4.723 0-8.416 3.79-8.416 8.496 0 4.705 3.693 8.496 8.416 8.496 3.063 0 4.808-1.225 5.926-2.339.906-.902 1.502-2.192 1.737-3.954l-7.663.003z"/>
</svg>
