<svg xmlns="http://www.w3.org/2000/svg" width="55" height="37" fill="none" viewBox="0 0 55 37">
    <path fill="#0071C5" d="M16.204 15.64v9.03h-2.827V13.32l5.837.006c2.48 0 3.324 1.777 3.324 3.392v7.952h-2.822v-7.937c0-.677-.345-1.093-1.175-1.093h-2.337zm19.225-.135c-.966 0-1.714.505-2.026 1.19-.185.412-.249.727-.27 1.232h4.349c-.056-1.232-.605-2.422-2.053-2.422zm-2.297 4.378c0 1.47.9 2.552 2.504 2.552 1.25 0 1.87-.352 2.592-1.082l1.746 1.695c-1.118 1.122-2.291 1.804-4.358 1.804-2.707 0-5.297-1.5-5.297-5.873 0-3.736 2.261-5.851 5.233-5.851 3.012 0 4.752 2.476 4.752 5.72v1.035h-7.172zm-5.2 4.773c-2.303 0-3.28-1.63-3.28-3.24V10.228h2.823v3.092h2.128v2.32h-2.128v5.596c0 .659.306 1.025.98 1.025h1.148v2.395h-1.67zm-17.07-12.904H8.015v-2.75h2.847v2.75zm.007 13.037c-2.132-.208-2.857-1.523-2.857-3.04l.003-8.429h2.854v11.469zm33.928-.242c-2.127-.21-2.85-1.521-2.85-3.036V8.61h2.85v15.936zm9.96-14.072C52.175-2.322 27.739-3.131 11.989 6.616v1.077c15.734-8.22 38.05-8.173 40.082 3.615.68 3.897-1.48 7.961-5.338 10.297v3.056c4.644-1.728 9.407-7.329 8.024-14.184zm-28.63 22.392c-10.87 1.021-22.198-.583-23.783-9.218-.776-4.258 1.132-8.77 3.662-11.573v-1.5C1.451 14.639-1.02 19.78.402 25.856c1.817 7.79 11.538 12.205 26.377 10.739 5.87-.583 13.555-2.502 18.897-5.483v-4.235c-4.847 2.935-12.869 5.362-19.55 5.99z"/>
    <path fill="#0071C5" d="M48.09 9.468c0-.14-.08-.185-.265-.185h-.178v.397l.178.005c.185 0 .265-.063.265-.194v-.023zm.278.985h-.211a.05.05 0 0 1-.044-.028l-.288-.496c-.005-.01-.03-.022-.04-.022h-.129v.492c0 .026-.018.054-.052.054h-.19c-.024 0-.048-.028-.048-.054V9.154c0-.072.027-.102.087-.111a3.92 3.92 0 0 1 .35-.015c.35 0 .562.105.562.44v.023c0 .207-.102.316-.259.37l.299.513c.002.01.008.025.008.037 0 .02-.011.042-.045.042zm-.5-1.65c-.52 0-.94.436-.94.96 0 .526.42.955.94.955a.95.95 0 0 0 .94-.954.956.956 0 0 0-.94-.96zm0 2.113c-.632 0-1.135-.517-1.135-1.152 0-.634.503-1.153 1.134-1.153a1.15 1.15 0 0 1 1.137 1.153c0 .635-.513 1.152-1.137 1.152z"/>
</svg>
