<svg xmlns="http://www.w3.org/2000/svg" width="35" height="34" fill="none" viewBox="0 0 35 34">
    <path fill="#EC1D24" d="M8.263 29.121s-4.042 0-4.042-3.887V5.594s0-1.904 2.02-1.904 2.003 1.903 2.003 1.903v18.414s-.148 1.235 1.39 1.235h17.998l-4.338-10.413s-.695-1.804 0-3.04c.694-1.237 3.642-6.2 3.642-6.2s.813-1.903 2.335-1.903c1.523 0 2.4 1.61 1.771 2.735-.63 1.125-3.475 5.92-3.475 5.92s-.73.992 0 2.34c1.192 2.8 6.026 14.44 6.026 14.44H8.263zm2.69-23.528s.1-1.903 2.003-1.903c1.902 0 1.986 1.903 1.986 1.903V18.86s.026 1.206 1.375 1.206c1.35 0 1.274-1.206 1.274-1.206V5.593s.186-1.903 2.042-1.903c1.856 0 2.003 1.903 2.003 1.903V18.86s-.067 4.88-5.315 5.14c-5.265-.148-5.383-5.14-5.383-5.14l.015-13.267zM0 34h35V0H0v34z"/>
</svg>
