<svg xmlns="http://www.w3.org/2000/svg" width="23" height="42" fill="none" viewBox="0 0 23 42">
    <path fill="#B1060F" fill-rule="evenodd" d="M14.779 0l-.017 9.288-.016 9.288-.761-2.156-.001-.004L13 37.093a709.912 709.912 0 0 0 1.491 4.211c.008.008.559.041 1.225.074 2.017.1 4.518.316 6.414.553.44.055.818.083.84.062.023-.02.035-9.477.028-21.015L22.984 0h-8.205zM0 0v20.986C0 32.53.011 41.984.025 41.998c.013.014.715-.053 1.558-.15.844-.096 2.01-.216 2.592-.266.892-.077 3.554-.251 3.863-.253.09 0 .095-.472.108-8.889l.014-8.888.644 1.857.228.657L10 5.406l-.333-.958C8.877 2.168 8.205.236 8.176.152L8.122 0H0z" clip-rule="evenodd"/>
    <path fill="url(#a)" fill-rule="evenodd" d="M0 0v11.78l8.25 22.012.002-1.354.014-8.888.653 1.858c3.632 10.34 5.584 15.885 5.596 15.897.007.007.557.04 1.221.074 2.012.1 4.506.316 6.398.552.438.055.815.083.837.062.016-.014.026-4.648.029-11.185L14.79 7.062l-.005 2.247-.016 9.282-.759-2.154A20633.76 20633.76 0 0 1 8.282.152L8.228 0H0z" clip-rule="evenodd"/>
    <path fill="#E50914" fill-rule="evenodd" d="M0 0l8.276 23.561v-.01l.654 1.857c3.637 10.34 5.591 15.885 5.603 15.897.008.007.558.04 1.223.074 2.015.1 4.512.316 6.406.552.436.055.812.083.838.063l-8.212-23.407v.004l-.76-2.154A19617.821 19617.821 0 0 1 8.292.152L8.238 0H0z" clip-rule="evenodd"/>
    <defs>
        <radialGradient id="a" cx="0" cy="0" r="1" gradientTransform="rotate(-19.203 66.905 -22.483) scale(5.2164 191.963)" gradientUnits="userSpaceOnUse">
            <stop/>
            <stop offset="1" stop-opacity="0"/>
        </radialGradient>
    </defs>
</svg>
