<svg xmlns="http://www.w3.org/2000/svg" width="71" height="20" fill="none" viewBox="0 0 71 20">
    <path fill="#F00" d="M10.634 3.423c2.773.139 4.768 1.089 5.965 2.85 1.097 1.583 1.397 3.502.898 5.758-.559 2.592-1.835 4.61-3.83 6.055-1.895 1.386-4.11 2.019-6.623 1.9-5.187-.257-7.9-3.74-6.803-8.825.539-2.474 1.756-4.413 3.67-5.818 1.916-1.405 4.15-2.058 6.723-1.92zm-.877 3.84c-1.117-.06-2.055.375-2.793 1.305-.638.772-1.077 1.742-1.317 2.89-.26 1.226-.279 2.235-.02 3.047.34 1.029 1.078 1.563 2.255 1.622.997.06 1.895-.336 2.653-1.128.758-.811 1.296-1.88 1.576-3.225.26-1.187.22-2.197-.1-3.008-.419-.95-1.157-1.464-2.254-1.504zm12.468-3.385h5.446l-1.137 6.036 5.885-6.036h5.785l-6.643 6.827 4.269 8.944h-6.563l-3.172-7.42-1.396 7.44h-5.427l2.953-15.79zm17.335.02H52.407L51.75 7.52h-7.4l-.42 2.256h7.082l-.678 3.621H43.27l-.499 2.434h7.421l-.718 3.84H36.628l.718-3.82.459-2.434.678-3.62.42-2.277.657-3.62zM63.3 0h3.75l-4.329 5.323h-1.556L63.3 0zM58.75 12.249l7.202-8.331H71l-2.992 15.751H62.84l1.496-8.232-7.162 8.232h-5.067l3.013-15.751h5.166l-1.536 8.33zM19.731 0h3.77l-4.328 5.323h-1.556L19.73 0z"/>
</svg>
