<svg xmlns="http://www.w3.org/2000/svg" width="48" height="48" fill="none" viewBox="0 0 48 48">
    <path fill="#EC231A" d="M36 3c5 0 9 4 9 9v24c0 5-4 9-9 9H12c-5 0-9-4-9-9V12c0-5 4-9 9-9h24zm0-3H12C5.4 0 0 5.4 0 12v24c0 6.6 5.4 12 12 12h24c6.6 0 12-5.4 12-12V12c0-6.6-5.4-12-12-12z"/>
    <path fill="#EC231A" d="M17.1 14.7c1.2 0 2.2 1 2.2 2.3 0 1.2-1 2.3-2.2 2.3-1.2 0-2.2-1-2.2-2.3-.1-1.3.9-2.3 2.2-2.3zm0-3c-2.9 0-5.2 2.4-5.2 5.3s2.4 5.3 5.2 5.3c2.9 0 5.2-2.4 5.2-5.3s-2.3-5.3-5.2-5.3zM31.1 28.9c1.2 0 2.2 1 2.2 2.3 0 1.2-1 2.3-2.2 2.3-1.2 0-2.2-1-2.2-2.3 0-1.3 1-2.3 2.2-2.3zm0-3.1c-2.9 0-5.2 2.4-5.2 5.3s2.4 5.3 5.2 5.3c2.8 0 5.2-2.4 5.2-5.3.1-2.9-2.3-5.3-5.2-5.3zM32.794 13.108L12.543 33.444l2.126 2.117 20.25-20.337-2.125-2.116z"/>
</svg>
