<svg xmlns="http://www.w3.org/2000/svg" width="81" height="24" fill="none" viewBox="0 0 81 24">
    <path fill="#E2231A" d="M9.119 4.633v6.99h6.752v2.21H9.119v7.04h-2.4v-7.04H0v-2.21h6.719v-6.99h2.4zM21.666 21.495h5.08V5.501c0-.459.017-.944.05-1.457l-4.22 3.585c-.144.12-.287.196-.43.23a1.21 1.21 0 0 1-.398 0 1.036 1.036 0 0 1-.347-.132.875.875 0 0 1-.232-.213l-.927-1.26L27.31.213h2.4v21.282h4.667v2.227h-12.71v-2.227zM46.624 0c1.005 0 1.931.142 2.78.426.85.283 1.578.687 2.185 1.211a5.448 5.448 0 0 1 1.44 1.9c.342.741.513 1.565.513 2.471 0 .742-.1 1.408-.298 1.997a4.717 4.717 0 0 1-.827 1.54 4.88 4.88 0 0 1-1.291 1.113 7.287 7.287 0 0 1-1.705.736c1.545.404 2.703 1.08 3.476 2.03.783.95 1.175 2.14 1.175 3.57 0 1.08-.21 2.051-.63 2.913a6.554 6.554 0 0 1-1.687 2.21 7.796 7.796 0 0 1-2.516 1.392 9.616 9.616 0 0 1-3.061.475c-1.258 0-2.334-.153-3.227-.459-.894-.316-1.65-.747-2.268-1.293a6.894 6.894 0 0 1-1.522-1.932 14.715 14.715 0 0 1-1.01-2.44l1.275-.523c.33-.142.65-.18.96-.115.32.066.551.246.694.54.144.306.32.672.53 1.098.22.425.519.834.894 1.227.375.393.85.726 1.423.999.585.273 1.324.41 2.218.41.827 0 1.55-.132 2.168-.394.628-.273 1.147-.622 1.555-1.047.42-.426.734-.9.944-1.425.21-.524.314-1.042.314-1.555a5.74 5.74 0 0 0-.248-1.735 2.903 2.903 0 0 0-.927-1.36c-.452-.381-1.076-.681-1.87-.9-.784-.218-1.793-.327-3.029-.327v-2.112c1.015-.01 1.876-.12 2.582-.327.717-.208 1.296-.491 1.738-.852.452-.36.778-.79.976-1.293.21-.502.315-1.058.315-1.67 0-.676-.11-1.266-.331-1.768a3.318 3.318 0 0 0-.877-1.244 3.708 3.708 0 0 0-1.341-.737 5.364 5.364 0 0 0-1.655-.245c-.596 0-1.153.087-1.671.262-.508.174-.96.42-1.357.736a4.25 4.25 0 0 0-.977 1.097 4.392 4.392 0 0 0-.563 1.408c-.143.382-.325.639-.546.77-.21.12-.518.152-.926.098l-1.54-.262c.155-1.07.453-2.014.894-2.832a6.812 6.812 0 0 1 1.672-2.08 7.184 7.184 0 0 1 2.333-1.26A8.934 8.934 0 0 1 46.624 0zM67.876 5.926c0 .917-.143 1.741-.43 2.472a5.56 5.56 0 0 1-1.158 1.834 4.853 4.853 0 0 1-1.672 1.13 5.155 5.155 0 0 1-2.002.392c-.74 0-1.429-.13-2.069-.393a4.853 4.853 0 0 1-1.671-1.13c-.464-.501-.828-1.112-1.093-1.833-.264-.73-.397-1.555-.397-2.472 0-.938.133-1.773.397-2.504.265-.732.63-1.348 1.093-1.85A4.75 4.75 0 0 1 60.545.426a5.407 5.407 0 0 1 2.069-.393c.75 0 1.445.13 2.085.393.64.262 1.197.644 1.671 1.146.475.502.844 1.118 1.11 1.85.264.73.396 1.566.396 2.504zm-2.283 0c0-.72-.078-1.331-.232-1.833-.155-.502-.37-.912-.645-1.228a2.257 2.257 0 0 0-.944-.704 3.162 3.162 0 0 0-1.158-.213c-.408 0-.79.071-1.142.213a2.281 2.281 0 0 0-.927.704c-.265.316-.474.726-.629 1.228-.154.502-.231 1.113-.231 1.833 0 .71.077 1.315.231 1.818.155.49.364.894.63 1.211.264.306.573.53.926.671.353.131.733.197 1.142.197.408 0 .794-.066 1.158-.197.364-.142.679-.365.944-.671.275-.317.49-.72.645-1.211.154-.503.232-1.108.232-1.818zM76.267.753c.11-.13.237-.245.38-.344.155-.098.36-.147.613-.147h2.135L62.05 23.247c-.1.142-.226.256-.38.344a1.127 1.127 0 0 1-.563.13H58.94L76.267.754zM81 18.188c0 .917-.143 1.736-.43 2.456a5.56 5.56 0 0 1-1.159 1.834 4.855 4.855 0 0 1-1.671 1.13 5.157 5.157 0 0 1-2.003.392c-.75 0-1.445-.131-2.085-.393a4.893 4.893 0 0 1-1.655-1.13c-.463-.502-.827-1.113-1.092-1.833-.265-.72-.397-1.539-.397-2.456 0-.938.132-1.773.397-2.504.265-.743.629-1.365 1.092-1.867a4.787 4.787 0 0 1 1.655-1.146 5.452 5.452 0 0 1 2.085-.393c.74 0 1.43.131 2.069.393a4.56 4.56 0 0 1 1.672 1.146c.474.502.844 1.124 1.108 1.867.276.73.414 1.566.414 2.504zm-2.284 0c0-.72-.077-1.331-.231-1.833-.155-.513-.37-.928-.646-1.245a2.313 2.313 0 0 0-.943-.687 3.162 3.162 0 0 0-1.159-.213c-.408 0-.794.071-1.158.213a2.337 2.337 0 0 0-.927.688c-.265.316-.474.73-.629 1.244-.143.502-.215 1.113-.215 1.833 0 .71.072 1.31.215 1.801.155.491.364.895.63 1.212.264.305.573.529.926.67.364.132.75.197 1.158.197.409 0 .795-.065 1.159-.196.364-.142.678-.366.943-.671.276-.317.491-.72.645-1.212.155-.491.232-1.091.232-1.8z"/>
</svg>
