<svg xmlns="http://www.w3.org/2000/svg" width="33" height="33" fill="none" viewBox="0 0 33 33">
    <path fill="#FFCB08" d="M32.609 14.35L20.78 16.17a.421.421 0 0 1-.357-.13.448.448 0 0 1-.119-.37l.343-6.485c-.01-.321.099-.635.304-.877a1.23 1.23 0 0 1 .804-.431l7.564-1.138c.307-.063.625-.004.89.165.265.17.458.436.54.745l2.214 6.098a.465.465 0 0 1-.135.541.439.439 0 0 1-.175.085l-.044-.023zM23.98 31.54l-5.416-10.944a.465.465 0 0 1 .143-.544.437.437 0 0 1 .178-.082l6.103-1.706c.29-.113.612-.11.9.01.287.121.52.349.65.638l3.467 7.008c.153.28.196.61.122.922-.074.312-.26.584-.52.762l-4.951 4.05a.43.43 0 0 1-.365.114.425.425 0 0 1-.31-.228zm-18.74-3.094l8.507-8.647a.43.43 0 0 1 .365-.113.425.425 0 0 1 .31.227l3.444 5.45a1.286 1.286 0 0 1-.132 1.717l-5.45 5.518a1.197 1.197 0 0 1-1.672.114l-5.272-3.607a.45.45 0 0 1-.19-.307.467.467 0 0 1 .09-.352zM2.396 9.23l10.622 5.688a.437.437 0 0 1 .215.322.455.455 0 0 1-.116.372L9.14 20.607a1.23 1.23 0 0 1-.743.533 1.2 1.2 0 0 1-.896-.135L.711 17.4a1.26 1.26 0 0 1-.62-.675 1.306 1.306 0 0 1-.01-.93l1.705-6.256a.45.45 0 0 1 .232-.306.422.422 0 0 1 .377-.001zM19.33.505L17.37 12.62a.45.45 0 0 1-.232.305.422.422 0 0 1-.377.002l-5.903-2.344a1.233 1.233 0 0 1-.723-.56 1.292 1.292 0 0 1-.152-.919l1.262-7.758c.034-.322.185-.619.424-.83a1.22 1.22 0 0 1 .861-.308l6.313-.205a.421.421 0 0 1 .365.126.447.447 0 0 1 .122.375z"/>
</svg>
