<svg xmlns="http://www.w3.org/2000/svg" width="21" height="33" fill="none" viewBox="0 0 21 33">
    <path fill="#00A8FF" d="M5.72 15.071C4.314 13.11 3.487 10.725 3.378 8.43c-.01-.165-.01-.325-.01-.494v-.014c0-1.905.563-3.641 1.49-4.954.514-.874 1.662-1.764 3.14-2.347-.665.25-1.308.574-1.922.96-10.691 6.492-4.9 23.182-.534 28.342.062.076.534.593.68.734 2.74 2.682 6.666 3.129 8.764.998 2.046-2.075 1.592-5.843-.982-8.515-2.708-2.898-5.778-4.384-8.282-8.068z"/>
    <path fill="#00A8FF" d="M11.088.008c-.165.005-.33.015-.496.029.884-.047 1.65.089 2.173.395a3.35 3.35 0 0 1 1.295 1.294c.411.677.619 1.51.619 2.427v.066c-.014 1.858-.855 4.04-2.48 5.866l-.128.14v.006a6.75 6.75 0 0 0-.392.498c-1.606 2.3-1.257 5.311.78 6.723 2.036 1.41 4.993.686 6.604-1.619.08-.113.156-.23.227-.348C23.896 8.278 18.534-.307 11.088.008z"/>
    <path fill="#F57B20" d="M7.166 12.903c.227-3.825 2.708-6.793 5.542-6.624a4.093 4.093 0 0 1 1.512.419c.298-.852.454-1.694.458-2.48v-.065c0-.917-.203-1.75-.619-2.427A3.44 3.44 0 0 0 13.034.6a3.288 3.288 0 0 0-.274-.17c-.954-.564-2.73-.554-4.559.114-1.583.578-2.811 1.51-3.35 2.422-.926 1.318-1.488 3.053-1.488 4.954 0 .165.005.33.014.494.104 2.296.936 4.68 2.344 6.652 1.138 1.674 2.39 2.897 3.675 4.003-1.474-1.284-2.38-3.594-2.23-6.167z"/>
</svg>
