<svg xmlns="http://www.w3.org/2000/svg" width="35" height="35" fill="none" viewBox="0 0 35 35">
    <path fill="#828282" fill-rule="evenodd" d="M23.966 11.753c-.547-.478-1.334-.467-1.786-.328.296-.361.985-.658 1.188-.694.154.058.598.511.598 1.022zm1.747-1.977c-.36-1.917-4.834-.647-7.087-1.46-.043.558.694 1.453 1.399 1.784-1.205 1.04-2.286 3.138-2.505 5.7-.217-2.562-1.299-4.66-2.503-5.7.705-.33 1.442-1.226 1.398-1.784-2.253.813-6.726-.456-7.087 1.46-.075.406.12 1.024.332 1.201.038-.128.236-.549.86-.643 3.151-.474 5.783 4.361 3.407 6.316-.036.03-.015.085.034.085h7.12c.05 0 .07-.055.034-.085-2.376-1.954.256-6.79 3.407-6.316.624.095.822.515.86.643.211-.177.407-.796.33-1.201zm.766-4.398c-.056-.181 1.792-.186 1.792.966 0 .771-1.106 1.137-1.106 1.938 0 .373.403.646.527.646-.285-1.285.893-.613 1.21-.372-.631-1.73.79-1.718.65-2.511-.096-.554-1.333-.387-1.78-.667-.794-.497-1.733-2.433-2.352-.497 1.154 1.066.482 2.635-.982 2.635 0 0-.008.23.005.249 1.747-.085 2.356-1.364 2.036-2.387zM6.096 8.556c.318-.24 1.496-.913 1.211.372.124 0 .527-.273.527-.646 0-.801-1.106-1.167-1.106-1.938 0-1.152 1.848-1.147 1.792-.966-.32 1.024.29 2.302 2.037 2.387.012-.019.004-.249.004-.249-1.464 0-2.135-1.57-.982-2.636-.619-1.935-1.558 0-2.352.498-.447.28-1.684.113-1.78.667-.14.793 1.281.782.65 2.51zm4.961 3.197c.548-.478 1.335-.467 1.786-.328-.295-.361-.985-.658-1.187-.694-.155.058-.599.511-.599 1.022zm7.295-10.719L17.5 0l-.853 1.034.852 1.089.853-1.089zm4.865 3.128l-.606-.735-.606.735.606.718.606-.718zm4.915 21.248l-.768-.81-.768.81.768.71.768-.71zM12.994 4.162l-.606-.735-.605.735.606.718.605-.718zm-1.736 3.603h2.26c1.901 0 2.756-1.161 3.015-2.168h1.934c.258 1.007 1.113 2.168 3.014 2.168h2.26s.396-.534.495-.799c.357-.951-.1-1.395-.765-1.395l-.86.776-.86-.776c-.666 0-1.122.444-.765 1.395.045.122.154.3.258.458-.802-.11-1.826-.656-2.05-1.827 0 0 .592-.937.74-1.317.535-1.364-.148-1.921-1.146-1.921L17.5 3.867 16.21 2.359c-.998 0-1.68.557-1.145 1.921.148.38.74 1.317.74 1.317-.224 1.17-1.248 1.717-2.05 1.827.104-.157.213-.336.258-.458.356-.951-.099-1.395-.765-1.395l-.86.776-.86-.776c-.667 0-1.122.444-.765 1.396.099.264.494.798.494.798zm23.37 6.974c-.436.22-2.995 1.414-6.274.972.034-.155.062-.312.086-.47 2.182-.26 3.956-.628 5.087-1.254 1.288-.714 1.852-2.418 1.201-3.686-.017-.032-.063-.038-.087-.01-.356.408-2.597 2.835-6.128 3.589a6.444 6.444 0 0 0-.05-.545c1.715-.968 3.389-2.083 4.187-3.103 1.205-1.542 1.094-3.51-.053-4.512a.055.055 0 0 0-.081.011c-.363.596-3.76 6.06-7.488 8.419a6.283 6.283 0 0 1-.137.085.175.175 0 0 0-.028.285c.43.388.697.928.697 1.527 0 1.042-.807 1.908-1.873 2.096-.542.105-1.324.074-2.076-.173-.033-.01-.068.011-.068.045v3.3c0 .053.08.066.1.015.457-1.204 1.824-1.46 2.422-1.46.215 1.287.6 2.353 1.099 2.927.813.933 2.14.92 2.717.275a.047.047 0 0 0-.013-.072c-.339-.193-2.274-1.376-2.662-3.315.152-.051.301-.112.446-.182.624 1.03 1.534 1.946 2.266 2.296 1.23.587 2.355.302 2.855-.558.018-.03-.004-.068-.041-.071-.76-.06-3.095-.727-4.09-2.35a4.78 4.78 0 0 0 .33-.327c1.04.788 2.51 1.485 3.563 1.627 1.232.167 2.628-.225 2.662-1.65 0-.03-.025-.053-.055-.05-.438.025-3.338.151-5.404-1.03.072-.135.139-.274.2-.414 0 0 3.123.734 4.602.491 1.47-.241 2.33-1.332 2.165-2.69-.005-.033-.045-.053-.076-.037zM7.062 16.976c.062.14.129.28.201.415-2.066 1.18-4.964 1.055-5.404 1.029-.03-.002-.057.023-.056.05.034 1.426 1.43 1.817 2.662 1.65 1.052-.142 2.523-.838 3.563-1.627.105.115.215.224.33.328-.995 1.623-3.33 2.289-4.09 2.35-.037.003-.058.04-.04.07.499.86 1.624 1.146 2.855.559.731-.35 1.64-1.267 2.265-2.296.145.07.294.13.446.182C9.405 21.624 7.47 22.806 7.13 23a.047.047 0 0 0-.013.072c.576.645 1.904.658 2.718-.275.499-.574.883-1.64 1.098-2.928.599 0 1.965.256 2.422 1.461.02.05.101.038.101-.016v-3.299c0-.034-.036-.056-.07-.045-.75.247-1.533.277-2.074.173-1.067-.188-1.874-1.054-1.874-2.096 0-.6.268-1.14.697-1.527a.175.175 0 0 0-.027-.285 6.354 6.354 0 0 1-.139-.085c-3.726-2.357-7.12-7.818-7.486-8.417A.056.056 0 0 0 2.4 5.72c-1.145 1.003-1.256 2.97-.051 4.511.797 1.02 2.472 2.136 4.186 3.104-.024.18-.04.362-.05.544C2.958 13.126.72 10.703.36 10.292c-.024-.028-.072-.022-.088.01-.65 1.268-.086 2.971 1.202 3.685 1.13.626 2.904.995 5.086 1.255.024.157.053.314.087.47-3.276.44-5.834-.75-6.274-.972-.033-.016-.072.004-.076.038-.166 1.357.694 2.447 2.164 2.689 1.48.243 4.6-.492 4.6-.492zm20.303 10.187l-1.137-.891c-.454.269-.788.696-.918 1.197-.684.095-2.55-.317-2.368-.59 2.045-2.863.481-4.568-1.398-4.473v1.922c0 .618-.542 1.118-1.209 1.118h-1.297c-.931 0-1.538.932-1.538.932s-.606-.932-1.537-.932h-1.297c-.668 0-1.208-.5-1.208-1.117v-1.923c-1.88-.095-3.445 1.61-1.4 4.472.18.27-1.737.704-2.636.595a1.334 1.334 0 0 0-.962-.399c-.163 0-.324.029-.477.085 0 0-3.534-3.33-3.599-3.363l.03-.068c.2-.374-.107-.783-.302-.754.226-.27.237-1.453-1.019-1.727.037.238.056.723.056.723s-.97-.522-1.456-.072c-.427.504.166 1.418.166 1.418s-.496.012-.74-.009c.36 1.21 1.564 1.124 1.825.886-.017.192.419.466.788.246l.162-.078c.029.038 3.471 3.276 3.471 3.276-.158.233-.233.52-.181.826.081.477.48.873.991.976.36.072.7.002.972-.156l.91.842a.42.42 0 0 0 .314.11c.223-.015.39-.195.373-.401a.357.357 0 0 0-.121-.234l-.928-.86c.753-.526 2.158-.896 3.323-.896.205 0 .301-.173.23-.342-.527-1.264.608-2.18 1.782-1.434.512.325 1.032.965 1.424 2.033-1.926.465-4.345 1.744-4.835 3.14-.188.54.434 1.275 1.19 1.423a.051.051 0 0 0 .062-.04c.395-2.085 2.647-3.638 3.819-3.902l.098.263c-1.276.6-2.514 1.868-2.867 3.374-.163.69.61 1.312 1.248 1.483.033.008.064-.014.066-.045.121-1.905.966-3.523 1.723-4.26.021.144.037.29.047.434 0 0-.775 2.15-.775 3.72 0 .73 1.09 1.239 1.25 1.31.202-.071 1.29-.58 1.29-1.31 0-1.57-.774-3.72-.774-3.72.01-.145.026-.29.047-.434.757.737 1.602 2.354 1.723 4.26a.052.052 0 0 0 .065.045c.64-.17 1.412-.793 1.25-1.483-.354-1.506-1.591-2.773-2.868-3.374l.098-.263c1.173.264 3.424 1.817 3.82 3.902a.051.051 0 0 0 .06.04c.756-.148 1.38-.884 1.19-1.423-.488-1.396-2.908-2.676-4.835-3.14.393-1.068.913-1.708 1.425-2.033 1.174-.746 2.31.17 1.781 1.434-.07.169.025.341.23.341 1.32 0 2.943.474 3.586 1.11.41.614 1.17 1.006 2.026.922.973-.095 1.766-.822 1.876-1.722.095-.788-.314-1.496-.967-1.881l-1.138.89zM18.98 21.42c.405-.15 1.04-.029 1.02.554-.006.132.18.132.193-.003.122-.872-.47-1.123-1.09-1.021-.077-.3-.14-.562-.212-.822-.057-.21-.078-.605.167-.605.131 0 .078.367.066.526-.01.138.04.222.152.226.07.003.159-.086.212-.146.354-.4.436-1.017.021-1.315-.348-.25-1.218-.064-1.457.292-.036-.134-.209-.356-.292-.452-.08-.094-.101-.159.01-.242.053-.04.211-.197.211-.36 0-.095-.074-.272-.312-.272-.187 0-.395.129-.395.417 0 .064.015.132.057.206a2.122 2.122 0 0 0-.605.03l2.283 6.234c.653-.32 1.132-.829 1.132-1.375 0-.464-.688-.31-1.022.052-.107-.589-.203-1.133-.308-1.676-.028-.15.048-.203.17-.248zm-3.228-4.236l.48 1.327c-.41.097-1.071.395-1.071.79 0 .525.934.867 1.474.826a.355.355 0 0 0 .088.325c-.196 0-.566.09-.687.22-.286-.265-.734-.362-.947-.2-.214.163-.22.439.003.75.155.216.214.43.039.68.65 0 .41-.843.666-.843a1.06 1.06 0 0 0 .061.562c.049.14.049.239-.035.373-.21.334-.537 1.101-.492 1.796-.214-.002-.322-.054-.247-.344.028-.108-.04-.185-.128-.052a1.112 1.112 0 0 0-.145.505c0 .618.74.742 1.022.612.817.787 2.42.577 2.958.313l-2.825-7.715c-.057-.145-.264-.076-.214.075zm-.097 6.355c-.059-.317.385-.885.95-1.433-.12.357-.046.972.19 1.184-.41 0-.896.077-1.14.25z" clip-rule="evenodd"/>
</svg>
