<svg xmlns="http://www.w3.org/2000/svg" width="81" height="81" fill="none" viewBox="0 0 81 81">
    <path fill="#E2231A" fill-rule="evenodd" d="M55.463 27.2c-1.266-1.105-3.087-1.08-4.132-.76.684-.835 2.28-1.522 2.748-1.605.358.134 1.384 1.183 1.384 2.365zm4.044-4.576c-.833-4.435-11.186-1.496-16.4-3.38-.1 1.293 1.605 3.364 3.236 4.13-2.787 2.41-5.29 7.262-5.796 13.19-.503-5.928-3.006-10.78-5.793-13.19 1.63-.765 3.337-2.837 3.236-4.13-5.214 1.884-15.567-1.054-16.402 3.38-.175.94.279 2.37.768 2.78.088-.297.546-1.27 1.99-1.488 7.293-1.097 13.383 10.093 7.886 14.618-.084.07-.036.196.077.196h16.48c.112 0 .16-.127.077-.196-5.498-4.524.591-15.714 7.886-14.617 1.444.218 1.9 1.19 1.988 1.488.49-.412.944-1.841.767-2.78v-.002zm1.774-10.178c-.131-.419 4.146-.43 4.146 2.236 0 1.785-2.559 2.63-2.559 4.484 0 .863.933 1.496 1.22 1.496-.66-2.975 2.065-1.418 2.8-.862-1.461-4 1.83-3.976 1.506-5.81-.226-1.282-3.087-.895-4.122-1.544-1.837-1.15-4.01-5.63-5.443-1.15 2.67 2.467 1.117 6.1-2.273 6.1 0 0-.02.531.012.574 4.043-.197 5.453-3.155 4.713-5.524zM14.109 19.8c.736-.556 3.46-2.113 2.803.862.285 0 1.217-.633 1.217-1.496 0-1.853-2.558-2.699-2.558-4.485 0-2.664 4.277-2.654 4.146-2.235-.739 2.369.67 5.327 4.714 5.524.03-.043.011-.575.011-.575-3.389 0-4.942-3.632-2.273-6.1-1.433-4.48-3.606 0-5.444 1.15-1.035.65-3.896.263-4.121 1.545-.323 1.835 2.967 1.81 1.505 5.81zm11.48 7.4c1.268-1.105 3.09-1.08 4.133-.76-.682-.835-2.28-1.522-2.747-1.605-.358.134-1.386 1.183-1.386 2.365zM42.472 2.394L40.499 0l-1.972 2.394 1.971 2.519 1.973-2.52zM53.73 9.632L52.328 7.93l-1.402 1.7 1.402 1.663 1.402-1.662zm11.376 49.173l-1.777-1.873-1.778 1.873 1.778 1.643 1.778-1.643zM30.072 9.632L28.67 7.93l-1.401 1.7 1.402 1.663 1.402-1.662zm-4.017 8.338h5.232c4.398 0 6.377-2.687 6.975-5.018h4.475c.599 2.33 2.576 5.018 6.976 5.018h5.231s.915-1.236 1.145-1.848c.826-2.202-.23-3.23-1.77-3.23l-1.991 1.797-1.991-1.796c-1.54 0-2.597 1.027-1.77 3.23.105.28.358.694.597 1.058-1.857-.254-4.226-1.519-4.746-4.229 0 0 1.372-2.168 1.716-3.046 1.237-3.157-.343-4.447-2.653-4.447L40.5 8.95l-2.982-3.49c-2.31 0-3.889 1.29-2.651 4.447.343.877 1.716 3.046 1.716 3.046-.521 2.71-2.89 3.975-4.747 4.23.24-.365.492-.778.597-1.06.825-2.202-.228-3.23-1.77-3.23l-1.991 1.798-1.992-1.796c-1.54 0-2.594 1.026-1.77 3.228.23.612 1.147 1.848 1.147 1.848zM80.14 34.112c-1.01.508-6.933 3.27-14.522 2.249.079-.36.146-.723.2-1.088 5.05-.601 9.156-1.454 11.772-2.903 2.983-1.652 4.287-5.596 2.781-8.53-.039-.074-.147-.088-.2-.025-.826.945-6.012 6.561-14.184 8.307-.02-.421-.06-.842-.116-1.26 3.969-2.24 7.844-4.822 9.69-7.182 2.788-3.57 2.531-8.122-.123-10.443a.127.127 0 0 0-.188.027c-.84 1.379-8.699 14.024-17.328 19.483a14.65 14.65 0 0 1-.318.197.405.405 0 0 0-.065.66c.996.897 1.614 2.146 1.614 3.533 0 2.411-1.867 4.417-4.335 4.852-1.254.242-3.064.171-4.803-.401-.078-.025-.16.026-.16.104v7.636c0 .123.188.154.233.036 1.057-2.788 4.221-3.38 5.605-3.38.498 2.98 1.388 5.447 2.543 6.776 1.882 2.158 4.955 2.128 6.288.636a.108.108 0 0 0-.03-.167c-.783-.448-5.262-3.186-6.159-7.672.352-.119.696-.26 1.03-.422 1.446 2.382 3.55 4.504 5.245 5.314 2.846 1.359 5.451.698 6.607-1.291.042-.07-.01-.158-.094-.165-1.76-.14-7.164-1.682-9.464-5.437.266-.24.52-.494.761-.759 2.408 1.825 5.811 3.437 8.248 3.767 2.851.385 6.082-.52 6.16-3.82.001-.067-.058-.12-.129-.117-1.014.061-7.724.352-12.506-2.38.166-.315.321-.635.465-.96 0 0 7.225 1.7 10.648 1.137 3.402-.559 5.395-3.083 5.01-6.224-.01-.078-.102-.125-.176-.088zm-63.8 5.174c.145.325.3.645.466.96-4.78 2.73-11.488 2.442-12.506 2.38-.072-.004-.131.053-.13.118.08 3.299 3.31 4.205 6.16 3.819 2.436-.33 5.84-1.942 8.248-3.766.241.265.495.518.761.759-2.301 3.755-7.703 5.296-9.463 5.436-.086.008-.135.095-.095.166 1.156 1.989 3.761 2.65 6.609 1.291 1.692-.81 3.797-2.932 5.242-5.314.335.162.679.303 1.03.422-.896 4.486-5.375 7.223-6.158 7.672a.11.11 0 0 0-.03.167c1.332 1.492 4.407 1.522 6.289-.637 1.155-1.328 2.044-3.796 2.541-6.775 1.386 0 4.549.592 5.606 3.38.046.117.233.087.233-.036v-7.636c0-.078-.082-.13-.16-.105-1.739.573-3.55.643-4.802.4-2.47-.434-4.337-2.439-4.337-4.85 0-1.386.62-2.636 1.614-3.534a.404.404 0 0 0-.062-.659c-.108-.064-.215-.13-.321-.196-8.624-5.457-16.48-18.093-17.327-19.48a.129.129 0 0 0-.191-.029c-2.65 2.323-2.908 6.873-.119 10.441 1.846 2.36 5.72 4.942 9.688 7.183a14.96 14.96 0 0 0-.114 1.26C6.845 30.377 1.663 24.77.83 23.818c-.056-.065-.166-.052-.204.022-1.503 2.936-.198 6.877 2.78 8.53 2.617 1.448 6.723 2.301 11.773 2.902.055.365.121.728.2 1.088C7.8 37.381 1.879 34.626.86 34.113c-.075-.038-.166.01-.176.088-.383 3.141 1.608 5.663 5.01 6.222 3.422.563 10.647-1.137 10.647-1.137zM63.33 62.86l-2.633-2.062c-1.05.623-1.822 1.612-2.122 2.77-1.584.221-5.901-.733-5.481-1.366 4.731-6.625 1.112-10.57-3.238-10.35v4.449c0 1.429-1.252 2.587-2.795 2.587h-3.004c-2.155 0-3.557 2.156-3.557 2.156s-1.403-2.156-3.558-2.156h-3.003c-1.545 0-2.795-1.158-2.795-2.587v-4.449c-4.35-.22-7.971 3.725-3.238 10.35.416.626-4.022 1.63-6.103 1.376a3.087 3.087 0 0 0-2.226-.923c-.376 0-.75.067-1.103.197 0 0-8.18-7.709-8.329-7.784l.067-.156c.467-.867-.246-1.813-.697-1.746.524-.626.548-3.363-2.358-3.996.086.55.129 1.672.129 1.672s-2.242-1.207-3.369-.165c-.989 1.166.384 3.28.384 3.28s-1.147.028-1.713-.02c.831 2.8 3.62 2.602 4.224 2.05-.04.444.97 1.08 1.824.57l.375-.18c.066.088 8.033 7.58 8.033 7.58a2.595 2.595 0 0 0-.42 1.911c.189 1.105 1.113 2.021 2.295 2.26a3.19 3.19 0 0 0 2.248-.362l2.108 1.949c.187.17.442.275.725.255.516-.035.902-.45.863-.928a.826.826 0 0 0-.28-.54c-.034-.037-2.148-1.991-2.148-1.991 1.744-1.217 4.994-2.075 7.691-2.075.474 0 .697-.4.534-.79-1.222-2.925 1.405-5.045 4.122-3.32 1.186.752 2.39 2.234 3.297 4.706-4.459 1.075-10.057 4.035-11.19 7.267-.436 1.248 1.005 2.95 2.754 3.291a.12.12 0 0 0 .142-.09c.914-4.826 6.126-8.42 8.838-9.031l.228.607c-2.954 1.391-5.818 4.324-6.636 7.81-.376 1.598 1.413 3.037 2.89 3.431.074.02.147-.032.151-.103.281-4.41 2.237-8.155 3.99-9.858.047.333.084.668.108 1.004 0 0-1.795 4.976-1.795 8.607 0 1.689 2.522 2.868 2.895 3.033.465-.165 2.985-1.344 2.985-3.033 0-3.631-1.793-8.608-1.793-8.608.024-.335.06-.67.11-1.003 1.75 1.704 3.708 5.447 3.987 9.857a.12.12 0 0 0 .15.104c1.48-.394 3.267-1.833 2.893-3.43-.82-3.487-3.683-6.42-6.636-7.81.135-.363.09-.245.227-.609 2.713.61 7.924 4.206 8.838 9.03a.12.12 0 0 0 .141.092c1.749-.342 3.192-2.044 2.753-3.291-1.13-3.232-6.73-6.193-11.19-7.268.91-2.471 2.114-3.953 3.3-4.705 2.715-1.725 5.343.394 4.12 3.319-.163.391.059.79.534.79 3.051 0 6.81 1.097 8.297 2.569.95 1.42 2.707 2.327 4.689 2.133 2.251-.22 4.087-1.903 4.341-3.985.222-1.824-.726-3.462-2.237-4.354l-2.634 2.062h.001zM43.925 49.572c.938-.346 2.409-.066 2.359 1.282-.012.306.418.306.45-.006.28-2.019-1.09-2.6-2.524-2.364-.178-.694-.324-1.3-.49-1.901-.132-.487-.18-1.4.385-1.4.305 0 .182.85.153 1.215-.025.321.091.516.353.525.163.007.367-.2.489-.338.82-.924 1.011-2.355.05-3.044-.805-.58-2.82-.148-3.373.676-.084-.31-.483-.823-.675-1.047-.186-.218-.234-.367.023-.559.122-.092.49-.456.49-.831 0-.222-.174-.632-.723-.632-.434 0-.916.299-.916.965 0 .148.037.306.133.477-.274-.045-1.018-.027-1.4.067l5.282 14.43c1.513-.743 2.621-1.919 2.621-3.181 0-1.076-1.592-.72-2.365.12-.249-1.364-.47-2.624-.712-3.88-.066-.346.111-.47.39-.575v.001zm-7.47-9.802l1.11 3.07c-.95.224-2.478.914-2.478 1.827 0 1.216 2.162 2.008 3.411 1.913-.062.278.01.525.204.75-.453 0-1.31.211-1.59.512-.663-.614-1.7-.838-2.193-.464-.495.377-.51 1.016.007 1.737.36.5.496.993.09 1.572 1.507 0 .952-1.95 1.543-1.95-.078.378-.03.816.14 1.3.114.323.114.552-.08.863-.486.773-1.242 2.55-1.14 4.156-.493-.003-.745-.123-.57-.795.064-.25-.09-.428-.296-.12-.227.34-.336.92-.336 1.168 0 1.43 1.712 1.719 2.365 1.416 1.89 1.821 5.603 1.335 6.846.724L36.95 39.596c-.133-.337-.613-.176-.495.174zm-.226 14.706c-.135-.735.892-2.048 2.2-3.316-.279.826-.106 2.25.44 2.74-.949 0-2.074.177-2.64.576z" clip-rule="evenodd"/>
</svg>
