<svg xmlns="http://www.w3.org/2000/svg" width="48" height="55" fill="none" viewBox="0 0 48 55">
    <path fill="#fff" d="M36 2H2v51.494h44.8V13.822L36 2z"/>
    <path fill="#EC231A" d="M35.3 3.406l9.3 10.62v37.468H3.4V3.406h31.9zM36.9 0H0v55h48V12.723L36.9 0z"/>
    <path fill="#EC231A" d="M16 17.406c1.4 0 2.6 1.202 2.6 2.605 0 1.402-1.2 2.605-2.6 2.605-1.4 0-2.6-1.203-2.6-2.605 0-1.503 1.1-2.605 2.6-2.605zM16 14c-3.3 0-6 2.705-6 6.01 0 3.307 2.7 6.012 6 6.012s6-2.705 6-6.011S19.3 14 16 14zM32 33.506c1.4 0 2.6 1.203 2.6 2.605 0 1.403-1.2 2.605-2.6 2.605-1.4 0-2.6-1.202-2.6-2.605 0-1.402 1.2-2.605 2.6-2.605zM32 30c-3.3 0-6 2.705-6 6.01 0 3.307 2.7 6.012 6 6.012s6-2.705 6-6.011S35.4 30 32 30zM34.122 14.836L11 38l2.404 2.408 23.122-23.164-2.404-2.408z"/>
</svg>
