<svg xmlns="http://www.w3.org/2000/svg" width="37" height="33" fill="none" viewBox="0 0 37 33">
    <path fill="#0F4C8F" d="M14.63 26.477c-5.146-2.405-8.636-6.674-9.658-11.233-.51-2.569.4-4.269.985-5.213.635-1.02 1.42-1.083 1.42-1.083s-.797-.39-1.869-.542c-1.346-.201-3.103-.05-4.2 1.663A16.603 16.603 0 0 0 0 16.428c.025 4.332 1.645 9.344 6.58 13.336a16.254 16.254 0 0 0 4.573 2.405c.225.075.462.138.686.201.723.202 1.433.353 2.118.454.05 0 .1.012.15.025l.636.075c.311.026.623.063.934.063.162 0 .312.013.474.013h.162c.299 0 .598-.013.897-.025h.012c.3-.013.599-.038.898-.076.037 0 .062-.012.1-.012.249-.038.498-.076.735-.114.15-.025.299-.05.436-.075.025 0 .05-.013.075-.013 2.729-.567 5.01-1.826 6.742-3.11a16.41 16.41 0 0 0 2.729-2.708c-4 1.915-9.334 1.94-14.307-.39zM5.87 7.248c2.804-3.589 7.115-5.944 11.988-5.944a15.19 15.19 0 0 1 9.546 3.375C24.488 1.934 20.574.234 16.263.234c-5.695 0-10.692 2.96-13.609 7.442.823-.378 2.007-.642 3.216-.428z"/>
    <path fill="#0F4C8F" d="M15.428 25.243a15.844 15.844 0 0 0 6.48 2.027c.922-.227 1.82-.567 2.605-1.02 3.128-1.977 12.375-14.935 12.375-14.935s-5.035-1.045-7.216.567c-2.193 1.612-3.826 4.18-6.256 6.938-2.43 2.77-3.49 4.509-5.633 5.05-1.595.416-3.103.34-4.449.038a28.96 28.96 0 0 0 2.094 1.335z"/>
    <path fill="#DC0D15" d="M30.383 25.822c1.931-1.423 6.455-7.656 6.455-7.656s-3.477-1.839-6.617 0c-3.153 1.85-3.053 2.317-6.194 4.924-3.128 2.606-5.458 2.896-7.19 2.77-.1 0-.188-.025-.287-.025 4.523 2.103 10.393 2.455 13.833-.013z"/>
    <path fill="#0F4C8F" d="M37 .284s-5.122-1.41-9.11 2.053c-2.854 2.506-9.022 19.267-13.87 20.211-.935.189-1.695.202-2.318.126l.025.025a9.98 9.98 0 0 0 2.854-.164c4.847-.944 11.253-16.42 14.219-18.8 2.966-2.368 6.517-1.776 6.517-1.776l-2.766 5.402L37 .284z"/>
</svg>
