<svg xmlns="http://www.w3.org/2000/svg" width="84" height="55" fill="none" viewBox="0 0 84 55">
    <path fill="#E2231A" d="M7.974 9.347h1.953v.918c0 .096-.03.177-.09.243-.054.066-.141.099-.261.099H7.974V14H6.57v-3.393H.846a.518.518 0 0 1-.315-.099.483.483 0 0 1-.162-.261l-.162-.819L6.48 1.103h1.494v8.244zM6.57 4.028c0-.156.003-.324.009-.504a6.3 6.3 0 0 1 .063-.567l-4.698 6.39H6.57V4.028zm13.771 3.528c0 1.128-.123 2.106-.369 2.934-.24.822-.57 1.503-.99 2.043-.42.54-.918.942-1.494 1.206a4.315 4.315 0 0 1-1.836.396c-.66 0-1.275-.132-1.845-.396a4.027 4.027 0 0 1-1.476-1.206c-.42-.54-.75-1.221-.99-2.043-.24-.828-.36-1.806-.36-2.934 0-1.128.12-2.106.36-2.934.24-.828.57-1.512.99-2.052.42-.546.912-.951 1.476-1.215a4.336 4.336 0 0 1 1.845-.396c.654 0 1.266.132 1.836.396a3.954 3.954 0 0 1 1.494 1.215c.42.54.75 1.224.99 2.052.246.828.37 1.806.37 2.934zm-1.665 0c0-.984-.084-1.809-.252-2.475-.162-.672-.384-1.212-.666-1.62-.276-.408-.597-.699-.963-.873a2.56 2.56 0 0 0-2.286 0c-.366.174-.687.465-.963.873-.276.408-.498.948-.666 1.62-.162.666-.243 1.491-.243 2.475s.081 1.809.243 2.475c.168.666.39 1.203.666 1.611.276.408.597.702.963.882a2.632 2.632 0 0 0 2.286 0c.366-.18.687-.474.963-.882.282-.408.504-.945.666-1.611.168-.666.252-1.491.252-2.475zm12.107 0c0 1.128-.123 2.106-.37 2.934-.24.822-.57 1.503-.99 2.043-.42.54-.917.942-1.493 1.206a4.315 4.315 0 0 1-1.836.396c-.66 0-1.275-.132-1.845-.396a4.027 4.027 0 0 1-1.476-1.206c-.42-.54-.75-1.221-.99-2.043-.24-.828-.36-1.806-.36-2.934 0-1.128.12-2.106.36-2.934.24-.828.57-1.512.99-2.052.42-.546.912-.951 1.476-1.215a4.336 4.336 0 0 1 1.845-.396c.654 0 1.266.132 1.836.396a3.954 3.954 0 0 1 1.494 1.215c.42.54.75 1.224.99 2.052.246.828.369 1.806.369 2.934zm-1.665 0c0-.984-.084-1.809-.252-2.475-.162-.672-.384-1.212-.666-1.62-.276-.408-.597-.699-.963-.873a2.56 2.56 0 0 0-2.286 0c-.366.174-.687.465-.963.873-.276.408-.498.948-.666 1.62-.162.666-.243 1.491-.243 2.475s.08 1.809.243 2.475c.168.666.39 1.203.666 1.611.276.408.597.702.963.882a2.632 2.632 0 0 0 2.286 0c.366-.18.687-.474.963-.882.282-.408.504-.945.666-1.611.168-.666.252-1.491.252-2.475zm14.912 0c0 1.128-.123 2.106-.37 2.934-.24.822-.57 1.503-.99 2.043-.42.54-.917.942-1.493 1.206a4.315 4.315 0 0 1-1.836.396c-.66 0-1.275-.132-1.845-.396a4.027 4.027 0 0 1-1.476-1.206c-.42-.54-.75-1.221-.99-2.043-.24-.828-.36-1.806-.36-2.934 0-1.128.12-2.106.36-2.934.24-.828.57-1.512.99-2.052.42-.546.912-.951 1.476-1.215A4.336 4.336 0 0 1 39.34.959c.654 0 1.266.132 1.836.396A3.954 3.954 0 0 1 42.67 2.57c.42.54.75 1.224.99 2.052.246.828.369 1.806.369 2.934zm-1.665 0c0-.984-.084-1.809-.252-2.475-.162-.672-.384-1.212-.666-1.62-.276-.408-.597-.699-.963-.873a2.559 2.559 0 0 0-2.286 0c-.366.174-.687.465-.963.873-.276.408-.498.948-.666 1.62-.162.666-.243 1.491-.243 2.475s.08 1.809.243 2.475c.168.666.39 1.203.666 1.611.276.408.597.702.963.882a2.632 2.632 0 0 0 2.286 0c.366-.18.687-.474.963-.882.282-.408.504-.945.666-1.611.168-.666.252-1.491.252-2.475zm12.106 0c0 1.128-.123 2.106-.369 2.934-.24.822-.57 1.503-.99 2.043-.42.54-.918.942-1.494 1.206a4.315 4.315 0 0 1-1.836.396c-.66 0-1.275-.132-1.845-.396a4.027 4.027 0 0 1-1.476-1.206c-.42-.54-.75-1.221-.99-2.043-.24-.828-.36-1.806-.36-2.934 0-1.128.12-2.106.36-2.934.24-.828.57-1.512.99-2.052.42-.546.912-.951 1.476-1.215a4.336 4.336 0 0 1 1.845-.396c.654 0 1.266.132 1.836.396a3.954 3.954 0 0 1 1.494 1.215c.42.54.75 1.224.99 2.052.246.828.369 1.806.369 2.934zm-1.665 0c0-.984-.084-1.809-.252-2.475-.162-.672-.384-1.212-.666-1.62-.276-.408-.597-.699-.963-.873a2.56 2.56 0 0 0-2.286 0c-.366.174-.687.465-.963.873-.276.408-.498.948-.666 1.62-.162.666-.243 1.491-.243 2.475s.081 1.809.243 2.475c.168.666.39 1.203.666 1.611.276.408.597.702.963.882a2.632 2.632 0 0 0 2.286 0c.366-.18.687-.474.963-.882.282-.408.504-.945.666-1.611.168-.666.252-1.491.252-2.475zm12.106 0c0 1.128-.123 2.106-.369 2.934-.24.822-.57 1.503-.99 2.043-.42.54-.918.942-1.494 1.206a4.315 4.315 0 0 1-1.836.396c-.66 0-1.275-.132-1.845-.396a4.027 4.027 0 0 1-1.476-1.206c-.42-.54-.75-1.221-.99-2.043-.24-.828-.36-1.806-.36-2.934 0-1.128.12-2.106.36-2.934.24-.828.57-1.512.99-2.052.42-.546.912-.951 1.476-1.215a4.336 4.336 0 0 1 1.845-.396c.654 0 1.266.132 1.836.396a3.954 3.954 0 0 1 1.494 1.215c.42.54.75 1.224.99 2.052.246.828.37 1.806.37 2.934zm-1.665 0c0-.984-.084-1.809-.252-2.475-.162-.672-.384-1.212-.666-1.62-.276-.408-.597-.699-.963-.873a2.56 2.56 0 0 0-2.286 0c-.366.174-.687.465-.963.873-.276.408-.498.948-.666 1.62-.162.666-.243 1.491-.243 2.475s.081 1.809.243 2.475c.168.666.39 1.203.666 1.611.276.408.597.702.963.882a2.632 2.632 0 0 0 2.286 0c.366-.18.687-.474.963-.882.282-.408.504-.945.666-1.611.168-.666.252-1.491.252-2.475z"/>
    <path stroke="#CCC" d="M80.5 54V1"/>
    <path stroke="#CCC" stroke-dasharray="3 2" d="M59.5 54V33"/>
    <path stroke="#E2231A" stroke-width="2" d="M0 54h5.684C38.468 54 67.928 33.98 80 3.5"/>
    <circle cx="80.5" cy="3.5" r="3.5" fill="#E2231A"/>
</svg>
