<svg xmlns="http://www.w3.org/2000/svg" width="80" height="24" fill="none" viewBox="0 0 80 24">
    <path fill="#3989C0" d="M46.293 4.2h.634c.536 0 .878-.25.878-.75s-.342-.75-.878-.75h-.634v1.5zM48.439 0v.9h-2.146v1.05h.78c1.415 0 1.756.95 1.756 1.6 0 .55-.341 1.45-1.756 1.45h-1.805V0h3.171zm3.854 3.05L51.61 1l-.683 2.05h1.366zM52.195 0l1.951 5h-1.122l-.39-1.15h-2L50.244 5H49.17l1.95-5h1.074zm3.512 0v2h2V0h.976v5h-.976V2.85h-2V5h-.975V0h.975zm4.927 0v2.15h.049L62.439 0h1.17l-2.048 2.25L63.756 5h-1.268l-1.805-2.5h-.049V5h-.976V0h.976zM46.78 10.35c.586 0 .83-.4.83-.8s-.244-.75-.83-.75h-.439v1.55h.44zm0-2.35c1.756 0 1.854 1.25 1.854 1.55 0 .65-.439 1.55-1.707 1.55h-.634V13h-.976V8h1.463zm4.83 3.05L50.878 9l-.683 2.05h1.415zM51.512 8l1.951 5h-1.122l-.39-1.15h-2l-.39 1.15h-1.073l1.951-5h1.073zm2.878 2h.586c.487 0 .78-.25.78-.65 0-.25-.195-.6-.78-.6-.39 0-.732.1-1.122.25l-.098-.85c.488-.15.878-.25 1.415-.25 1.122 0 1.658.55 1.658 1.25 0 .5-.244 1-.829 1.15.536.1.976.45.976 1.2 0 1.4-1.513 1.5-2 1.5-.586 0-.927-.15-1.415-.3l.097-.85c.683.3 1.122.35 1.318.35.731 0 .975-.4.975-.65 0-.75-.78-.75-.927-.75h-.585l-.049-.8zm4.342 2.2h.536c.634 0 .878-.35.878-.7s-.195-.7-.878-.7h-.536v1.4zm0-2.2h.487c.635 0 .781-.4.781-.6 0-.15-.049-.6-.78-.6h-.44l-.048 1.2zm.634-2c.927 0 1.61.4 1.61 1.25 0 .75-.44 1.05-.78 1.15.633.1 1.023.55 1.023 1.2 0 .6-.341 1.4-1.902 1.4h-1.56V8h1.609zm3.658 0v3.8l.342-.75L65.073 8h1.17v5h-.975v-2.6l.049-1.2h-.049l-.341.75L63.219 13h-1.17V8h.975zm7.659 0v.9h-1.415V13h-.975V8.9h-1.415V8h3.805zm1.56 0v3.8l.342-.75L74.293 8h1.22v5h-1.025v-2.6l.049-1.2h-.05l-.34.75L72.438 13h-1.17V8h.975zm6.684.8h-.586c-.829 0-.926.5-.926.8 0 .8.78.8.926.8h.537l.049-1.6zM79.95 13h-.975v-1.85h-.586L77.463 13h-1.17l1.17-2.05c-.39-.1-.975-.45-.975-1.4C76.488 8 78.098 8 78.439 8H80v5h-.049zm-69.853 2.6H6.584v1.9h3.513c.78 0 1.073-.45 1.073-.95.049-.5-.244-.95-1.073-.95zm17.268-.05h-3.17v1.95h3.17c.78 0 1.073-.45 1.073-1 0-.5-.293-.95-1.073-.95zm-16.44-2.1c0-.5-.292-1-1.072-1h-3.22v1.9h3.22c.78 0 1.073-.4 1.073-.9z"/>
    <path fill="#3989C0" d="M10.732 0L0 11v13h29.707L40.44 13V0H10.732zm-.683 19h-5.17v-8h4.877c2.049 0 2.927.9 2.927 2.2 0 .75-.293 1.3-.927 1.65.878.35 1.22 1 1.22 1.85 0 1.3-.83 2.3-2.927 2.3zm7.707 0h-3.854v-1.5h3.659c1.073 0 1.902-.7 2.146-1.8h-4.975v-1.45h5.024c-.293-1.05-1.073-1.75-2.195-1.75h-3.707V11h3.853c2.293 0 3.854 1.6 3.854 4 0 2.35-1.561 4-3.805 4zm9.561 0h-4.83v-8h7.27v1.5h-5.562v1.6h3.17c2.05 0 2.83 1.05 2.83 2.45 0 1.4-.83 2.45-2.878 2.45z"/>
</svg>
