<svg class="svg-symbol" xmlns="http://www.w3.org/2000/svg">
<defs>
<radialGradient id="a" cx="0" cy="0" r="1" gradientTransform="rotate(-19.203 66.905 -22.483) scale(5.2164 191.963)" gradientUnits="userSpaceOnUse"> <stop/> <stop offset="1" stop-opacity="0"/> </radialGradient>
</defs>
<symbol id="aboutiis" viewBox="0 0 100 65"> <path fill="#fff" d="M91.785 63.033H8.69c-3.792 0-6.793-3.318-6.793-7.425L1.58 9.005c0-4.108 3.001-7.425 6.635-7.425H91.31c3.792 0 6.793 3.317 6.793 7.425l.316 46.445c0 4.265-3.001 7.583-6.635 7.583z"/> <path fill="#E2231A" d="M91.785 64.613H8.69c-4.582 0-8.373-4.108-8.373-9.005L0 9.005C0 6.477.948 4.107 2.686 2.37 4.266.79 6.16 0 8.215 0H91.31c4.582 0 8.373 4.107 8.373 9.005L100 55.45c0 2.528-.948 4.898-2.686 6.635-1.421 1.738-3.475 2.528-5.529 2.528zM8.215 3.16c-1.264 0-2.37.473-3.318 1.421C3.791 5.687 3.16 7.267 3.16 9.005l.316 46.445c0 3.318 2.37 5.845 5.213 5.845h83.096c1.264 0 2.37-.474 3.318-1.421 1.106-1.106 1.737-2.686 1.737-4.424l-.316-46.445c0-3.318-2.37-5.845-5.213-5.845H8.215z"/> <path fill="#E2231A" stroke="#E2231A" stroke-miterlimit="10" stroke-width="2" d="M98.42 55.608c0 4.108-3.001 7.425-6.635 7.425H8.69c-3.791 0-6.793-3.317-6.793-7.425h96.525z"/> <path fill="#E2231A" d="M22.275 32.07v13.586h-2.212v-9.004-.948c0-.316 0-.632.158-1.106-.158.316-.316.632-.316.948-.158.316-.316.474-.474.79l-5.845 8.689c0 .157-.158.157-.158.316 0 .157-.158.157-.158.157s-.158.158-.316.158H10.9V32.07h2.212V42.023c0 .316 0 .632-.158 1.106.158-.316.316-.632.316-.948 0-.316.316-.474.316-.79l5.845-8.689c0-.158.158-.158.158-.316s.158-.158.158-.158c.158 0 .158-.158.316-.158H22.275zM36.809 32.07v13.586h-2.212v-9.004-.948c0-.316 0-.632.158-1.106-.158.316-.316.632-.316.948-.158.316-.316.474-.474.79l-5.845 8.689c0 .157-.158.157-.158.316 0 .157-.158.157-.158.157s-.158.158-.316.158h-2.053V32.07h2.211V42.023c0 .316 0 .632-.158 1.106.158-.316.316-.632.316-.948 0-.316.316-.474.316-.79l5.845-8.689c0-.158.158-.158.158-.316s.158-.158.158-.158c.158 0 .158-.158.316-.158H36.81zM49.447 42.655c.158 0 .158 0 .316.158l.948.947c-.632.632-1.264 1.264-2.054 1.58-.79.316-1.738.474-2.844.474-.948 0-1.895-.158-2.685-.474-.79-.316-1.422-.79-2.054-1.422-.632-.632-.948-1.421-1.264-2.211-.316-.79-.474-1.738-.474-2.844 0-.948.158-1.896.474-2.843.316-.79.79-1.58 1.422-2.212.632-.632 1.264-1.106 2.054-1.422.79-.316 1.737-.474 2.685-.474s1.896.158 2.686.474a5.68 5.68 0 0 1 1.896 1.264l-.79 1.106-.158.158h-.316c-.158 0-.316 0-.474-.158-.158-.158-.316-.316-.632-.316-.316-.158-.632-.316-.948-.316-.316-.158-.79-.158-1.422-.158-.632 0-1.263.158-1.737.316-.474.158-.948.632-1.422.948-.316.474-.632.948-.948 1.58-.158.631-.316 1.263-.316 2.053s.158 1.58.316 2.212c.158.632.474 1.106.948 1.58s.79.79 1.422.947c.474.159 1.105.316 1.737.316h.948c.316 0 .632-.157.79-.157.316-.159.474-.159.79-.317.158-.158.474-.316.632-.473.316-.316.474-.316.474-.316z"/> </symbol>
<symbol id="adv-2" viewBox="0 0 60 60"> <path fill="#EC231A" d="M31.5 0h-24C3.375 0 0 3.375 0 7.5v45C0 56.625 3.375 60 7.5 60h24c4.125 0 7.5-3.375 7.5-7.5v-45C39 3.375 35.625 0 31.5 0zm-24 3.75h24a3.761 3.761 0 0 1 3.75 3.75H3.75A3.761 3.761 0 0 1 7.5 3.75zm27.75 7.5v37.5H3.75v-37.5h31.5zm-3.75 45h-24a3.761 3.761 0 0 1-3.75-3.75v-.188h31.5v.188a3.761 3.761 0 0 1-3.75 3.75zM60 18.937H43.5v3.75H60v-3.75zM54.75 28.312H43.5v3.75h11.25v-3.75zM49.5 37.5h-6v3.75h6V37.5z"/> <path fill="#EC231A" d="M10.125 30.187l4.125 4.125 9.563-9.562 3.75 3.75 4.5-4.688v-5.25l-4.5 4.5-3.75-3.75-9.563 9.75-4.125-4.125-3.375 3.375v5.438l3.375-3.563z"/> </symbol>
<symbol id="adv-3" viewBox="0 0 61 60"> <path fill="#EC231A" d="M60.068 37.595l-17.426 4.73L37.662 60 20.985 20.667l39.084 16.928zM7.283 4.618l-2.64 2.64 6.864 6.866 2.64-2.64-6.864-6.866zM40.727 13.517l-9.378 2.509.964 3.607 9.38-2.509-.966-3.607zM9.378 21.98L0 24.496l.967 3.607 9.378-2.514-.967-3.607zM24.499 0l-2.515 9.378 3.607.967L28.106.968 24.499 0zM16.104 31.412l-2.514 9.377 3.607.968 2.514-9.378-3.607-.967z"/> </symbol>
<symbol id="adv_1" viewBox="0 0 60 60"> <path fill="#EC231A" d="M30 3.938L56.25 13.5c-1.125 18-10.313 32.813-26.25 42-15.938-9-25.125-23.813-26.25-41.813L30 3.938zM30 0L0 11.063C.188 32.624 11.25 49.874 30 60c18.563-9.938 29.625-27.188 30-48.938L30 0z"/> <path fill="#EC231A" d="M39.75 26.25h-8.813L36 13.5 20.25 29.25h8.812L24 42l15.75-15.75z"/> </symbol>
<symbol id="alrosa-icon" viewBox="0 0 47 26"> <path fill="#E2002B" d="M0 6.503v12.994L11.738 26l11.741-6.503V6.503L11.738 0 0 6.503z"/> <path fill="#fff" d="M0 6.503L11.737 26 23.48 6.503H0z"/> <path fill="#006AAF" d="M23.517 6.503v12.994L35.26 26 47 19.497V6.503L35.259 0 23.517 6.503z"/> <path fill="#fff" d="M35.259 0L47 19.497H23.517L35.26 0z"/> </symbol>
<symbol id="arrow-down" viewBox="0 0 80 21"> <g fill="none"> <path stroke="#A8D0E3" stroke-width="2" d="M.42.896l40.07 18.798L79.571.896"/> </g> </symbol>
<symbol id="case-percent" viewBox="0 0 36 36"> <path fill="#A8D0E3" d="M27 2.25c3.75 0 6.75 3 6.75 6.75v18c0 3.75-3 6.75-6.75 6.75H9c-3.75 0-6.75-3-6.75-6.75V9c0-3.75 3-6.75 6.75-6.75h18zM27 0H9C4.05 0 0 4.05 0 9v18c0 4.95 4.05 9 9 9h18c4.95 0 9-4.05 9-9V9c0-4.95-4.05-9-9-9z"/> <path fill="#A8D0E3" d="M12.825 11.025c.9 0 1.65.75 1.65 1.725 0 .9-.75 1.725-1.65 1.725-.9 0-1.65-.75-1.65-1.725-.075-.975.675-1.725 1.65-1.725zm0-2.25c-2.175 0-3.9 1.8-3.9 3.975s1.8 3.975 3.9 3.975c2.175 0 3.9-1.8 3.9-3.975S15 8.775 12.825 8.775zM23.325 21.675c.9 0 1.65.75 1.65 1.725 0 .9-.75 1.725-1.65 1.725-.9 0-1.65-.75-1.65-1.725 0-.975.75-1.725 1.65-1.725zm0-2.325c-2.175 0-3.9 1.8-3.9 3.975s1.8 3.975 3.9 3.975c2.1 0 3.9-1.8 3.9-3.975.075-2.175-1.725-3.975-3.9-3.975zM24.596 9.83L9.407 25.083l1.595 1.588L26.19 11.418 24.595 9.83z"/> </symbol>
<symbol id="dot-adv" viewBox="0 0 81 20"> <circle cx="10" cy="10" r="8.5" stroke="#E2231A" stroke-width="3"/> <circle cx="41" cy="10" r="8.5" stroke="#E2231A" stroke-width="3"/> <circle cx="71" cy="10" r="8.5" stroke="#E2231A" stroke-width="3"/> </symbol>
<symbol id="dots-icon" viewBox="0 0 22 4"> <path fill="#C4C4C4" d="M0 2.008c0-.276.052-.537.155-.78C.269.982.419.77.602.59c.195-.181.424-.324.688-.43.264-.107.545-.16.843-.16.298 0 .579.053.843.16.264.106.493.249.688.43.195.18.35.393.464.637.115.244.172.505.172.781 0 .287-.057.552-.172.797-.114.234-.27.44-.464.621-.195.18-.424.319-.688.415-.264.106-.545.159-.843.159-.298 0-.58-.053-.843-.16a2.005 2.005 0 0 1-.688-.414 2.266 2.266 0 0 1-.447-.621A2.027 2.027 0 0 1 0 2.008zm17.7 0c0-.276.051-.537.155-.78a2.19 2.19 0 0 1 .447-.638c.195-.181.424-.324.688-.43.264-.107.545-.16.843-.16.298 0 .579.053.843.16.263.106.493.249.688.43.194.18.35.393.464.637.115.244.172.505.172.781 0 .287-.057.552-.172.797-.115.234-.27.44-.464.621-.195.18-.425.319-.689.415-.263.106-.544.159-.842.159-.298 0-.58-.053-.843-.16a2.005 2.005 0 0 1-.688-.414 2.264 2.264 0 0 1-.447-.621 2.027 2.027 0 0 1-.155-.797zm-8.859 0c0-.276.052-.537.155-.78.115-.245.264-.458.447-.638.195-.181.425-.324.688-.43.264-.107.545-.16.843-.16.298 0 .58.053.843.16.264.106.493.249.688.43.195.18.35.393.464.637.115.244.173.505.173.781 0 .287-.058.552-.172.797-.115.234-.27.44-.465.621-.195.18-.424.319-.688.415-.264.106-.545.159-.843.159-.298 0-.579-.053-.843-.16a2.005 2.005 0 0 1-.688-.414 2.266 2.266 0 0 1-.447-.621 2.027 2.027 0 0 1-.155-.797z"/> </symbol>
<symbol id="faq-icon" viewBox="0 0 90 58"> <path fill="#fff" fill-rule="evenodd" d="M82.567 56.364H7.774c-3.344 0-6.074-3.008-6.098-6.719L1.422 7.79c-.024-3.71 2.666-6.72 6.01-6.72h74.794c3.344 0 6.073 3.01 6.099 6.72l.254 41.855c.023 3.711-2.667 6.72-6.011 6.72z" clip-rule="evenodd"/> <mask id="a" width="90" height="59" x="0" y="-1" maskUnits="userSpaceOnUse"> <path fill="#fff" d="M0-.352h90v58.138H0V-.352z"/> </mask> <g mask="url(#a)"> <path fill="#E2231A" fill-rule="evenodd" d="M8 3c-1.54 0-2.613.46-3 1-1.443 1.292-2.01 2.733-2 4v42c.273 2.64 2.362 5 5 5h74c1.542 0 2.614-.46 3-1 1.444-1.291 2.01-2.732 2-4V8c-.273-2.64-2.362-5-5-5H8zm75 55H8c-4.342 0-7.716-3.64-8-8V8c-.014-2.14.855-4.324 2-6C3.76.76 5.553 0 7 0h75c4.343 0 7.717 3.64 8 8v42c.015 2.141-.854 4.324-2 6-1.757 1.24-3.55 2-5 2z" clip-rule="evenodd"/> </g> <path fill="#E2231A" d="M21.66 28.319v1.58h-6.89v5.01h5.89v1.58h-5.89v6.16h-1.94v-14.33h8.83zm12.976 14.33h-1.5a.645.645 0 0 1-.42-.13.8.8 0 0 1-.24-.33l-1.34-3.46h-6.43l-1.34 3.46a.702.702 0 0 1-.23.32.638.638 0 0 1-.42.14h-1.5l5.73-14.33h1.96l5.73 14.33zm-9.39-5.32h5.35l-2.25-5.83a7.383 7.383 0 0 1-.22-.6l-.21-.73c-.066.26-.136.506-.21.74a5.63 5.63 0 0 1-.21.6l-2.25 5.82zm24.154-1.84c0 .673-.07 1.316-.21 1.93a7.233 7.233 0 0 1-.59 1.69c-.26.52-.576.993-.95 1.42a6.429 6.429 0 0 1-1.26 1.11l3.67 3.97h-1.6c-.24 0-.453-.034-.64-.1a1.276 1.276 0 0 1-.51-.35l-2.51-2.74c-.38.12-.776.213-1.19.28-.406.066-.833.1-1.28.1-1.053 0-2.013-.177-2.88-.53a6.504 6.504 0 0 1-2.23-1.51 6.776 6.776 0 0 1-1.44-2.31c-.34-.9-.51-1.887-.51-2.96 0-1.074.17-2.057.51-2.95.34-.9.82-1.674 1.44-2.32a6.438 6.438 0 0 1 2.23-1.52c.867-.36 1.827-.54 2.88-.54 1.054 0 2.014.18 2.88.54.874.36 1.62.866 2.24 1.52.62.646 1.1 1.42 1.44 2.32.34.893.51 1.876.51 2.95zm-1.99 0c0-.88-.12-1.67-.36-2.37-.24-.7-.58-1.29-1.02-1.77a4.397 4.397 0 0 0-1.6-1.12c-.626-.26-1.326-.39-2.1-.39-.766 0-1.463.13-2.09.39a4.492 4.492 0 0 0-1.61 1.12c-.44.48-.78 1.07-1.02 1.77s-.36 1.49-.36 2.37c0 .88.12 1.67.36 2.37.24.693.58 1.283 1.02 1.77.447.48.984.85 1.61 1.11.627.253 1.324.38 2.09.38.774 0 1.474-.127 2.1-.38.627-.26 1.16-.63 1.6-1.11.44-.487.78-1.077 1.02-1.77.24-.7.36-1.49.36-2.37z"/> </symbol>
<symbol id="google-icon" viewBox="0 0 92 31"> <path fill="#EA4335" d="M39.44 16.015c0 4.335-3.403 7.53-7.58 7.53-4.178 0-7.582-3.195-7.582-7.53 0-4.365 3.404-7.529 7.581-7.529 4.178 0 7.582 3.164 7.582 7.53zm-3.318 0c0-2.708-1.973-4.562-4.263-4.562s-4.263 1.854-4.263 4.562c0 2.682 1.973 4.563 4.263 4.563s4.263-1.884 4.263-4.563z"/> <path fill="#FBBC05" d="M55.796 16.015c0 4.335-3.404 7.53-7.581 7.53-4.178 0-7.582-3.195-7.582-7.53 0-4.362 3.404-7.529 7.582-7.529 4.177 0 7.581 3.164 7.581 7.53zm-3.319 0c0-2.708-1.972-4.562-4.262-4.562-2.29 0-4.263 1.854-4.263 4.562 0 2.682 1.973 4.563 4.263 4.563s4.262-1.884 4.262-4.563z"/> <path fill="#4285F4" d="M71.47 8.941v13.517c0 5.56-3.291 7.831-7.183 7.831-3.663 0-5.867-2.44-6.699-4.436l2.89-1.199c.514 1.226 1.775 2.672 3.806 2.672 2.49 0 4.034-1.531 4.034-4.413V21.83h-.115c-.743.913-2.174 1.711-3.98 1.711-3.78 0-7.241-3.279-7.241-7.498 0-4.25 3.462-7.557 7.24-7.557 1.803 0 3.234.798 3.98 1.684h.116V8.945h3.152V8.94zm-2.916 7.102c0-2.652-1.776-4.59-4.035-4.59-2.29 0-4.208 1.938-4.208 4.59 0 2.623 1.918 4.535 4.208 4.535 2.26 0 4.034-1.912 4.034-4.535z"/> <path fill="#34A853" d="M76.667 1.018v22.065H73.43V1.018h3.237z"/> <path fill="#EA4335" d="M89.28 18.493l2.577 1.711c-.832 1.226-2.835 3.337-6.297 3.337-4.293 0-7.5-3.306-7.5-7.529 0-4.477 3.234-7.53 7.129-7.53 3.922 0 5.84 3.11 6.467 4.79l.344.856-10.103 4.169c.773 1.51 1.976 2.28 3.663 2.28 1.69 0 2.862-.828 3.72-2.084zm-7.928-2.708l6.753-2.794c-.371-.94-1.489-1.596-2.804-1.596-1.687 0-4.034 1.484-3.95 4.39z"/> <path fill="#4285F4" d="M11.902 13.897v-3.194h10.805c.106.557.16 1.215.16 1.928 0 2.397-.658 5.36-2.777 7.471-2.061 2.139-4.695 3.28-8.184 3.28C5.438 23.381 0 18.133 0 11.69 0 5.248 5.438 0 11.905 0c3.578 0 6.127 1.399 8.042 3.221l-2.263 2.254c-1.373-1.283-3.233-2.28-5.782-2.28-4.723 0-8.416 3.79-8.416 8.496 0 4.705 3.693 8.496 8.416 8.496 3.063 0 4.808-1.225 5.926-2.339.906-.902 1.502-2.192 1.737-3.954l-7.663.003z"/> </symbol>
<symbol id="group-21" viewBox="0 0 60 60"> <path fill="#EC231A" d="M31.5 0h-24C3.375 0 0 3.375 0 7.5v45C0 56.625 3.375 60 7.5 60h24c4.125 0 7.5-3.375 7.5-7.5v-45C39 3.375 35.625 0 31.5 0zm-24 3.75h24a3.761 3.761 0 0 1 3.75 3.75H3.75A3.761 3.761 0 0 1 7.5 3.75zm27.75 7.5v37.5H3.75v-37.5h31.5zm-3.75 45h-24a3.761 3.761 0 0 1-3.75-3.75v-.188h31.5v.188a3.761 3.761 0 0 1-3.75 3.75zM60 18.937H43.5v3.75H60v-3.75zM54.75 28.312H43.5v3.75h11.25v-3.75zM49.5 37.5h-6v3.75h6V37.5z"/> <path fill="#EC231A" d="M10.125 30.187l4.125 4.125 9.563-9.562 3.75 3.75 4.5-4.688v-5.25l-4.5 4.5-3.75-3.75-9.563 9.75-4.125-4.125-3.375 3.375v5.438l3.375-3.563z"/> </symbol>
<symbol id="intel-icon" viewBox="0 0 55 37"> <path fill="#0071C5" d="M16.204 15.64v9.03h-2.827V13.32l5.837.006c2.48 0 3.324 1.777 3.324 3.392v7.952h-2.822v-7.937c0-.677-.345-1.093-1.175-1.093h-2.337zm19.225-.135c-.966 0-1.714.505-2.026 1.19-.185.412-.249.727-.27 1.232h4.349c-.056-1.232-.605-2.422-2.053-2.422zm-2.297 4.378c0 1.47.9 2.552 2.504 2.552 1.25 0 1.87-.352 2.592-1.082l1.746 1.695c-1.118 1.122-2.291 1.804-4.358 1.804-2.707 0-5.297-1.5-5.297-5.873 0-3.736 2.261-5.851 5.233-5.851 3.012 0 4.752 2.476 4.752 5.72v1.035h-7.172zm-5.2 4.773c-2.303 0-3.28-1.63-3.28-3.24V10.228h2.823v3.092h2.128v2.32h-2.128v5.596c0 .659.306 1.025.98 1.025h1.148v2.395h-1.67zm-17.07-12.904H8.015v-2.75h2.847v2.75zm.007 13.037c-2.132-.208-2.857-1.523-2.857-3.04l.003-8.429h2.854v11.469zm33.928-.242c-2.127-.21-2.85-1.521-2.85-3.036V8.61h2.85v15.936zm9.96-14.072C52.175-2.322 27.739-3.131 11.989 6.616v1.077c15.734-8.22 38.05-8.173 40.082 3.615.68 3.897-1.48 7.961-5.338 10.297v3.056c4.644-1.728 9.407-7.329 8.024-14.184zm-28.63 22.392c-10.87 1.021-22.198-.583-23.783-9.218-.776-4.258 1.132-8.77 3.662-11.573v-1.5C1.451 14.639-1.02 19.78.402 25.856c1.817 7.79 11.538 12.205 26.377 10.739 5.87-.583 13.555-2.502 18.897-5.483v-4.235c-4.847 2.935-12.869 5.362-19.55 5.99z"/> <path fill="#0071C5" d="M48.09 9.468c0-.14-.08-.185-.265-.185h-.178v.397l.178.005c.185 0 .265-.063.265-.194v-.023zm.278.985h-.211a.05.05 0 0 1-.044-.028l-.288-.496c-.005-.01-.03-.022-.04-.022h-.129v.492c0 .026-.018.054-.052.054h-.19c-.024 0-.048-.028-.048-.054V9.154c0-.072.027-.102.087-.111a3.92 3.92 0 0 1 .35-.015c.35 0 .562.105.562.44v.023c0 .207-.102.316-.259.37l.299.513c.002.01.008.025.008.037 0 .02-.011.042-.045.042zm-.5-1.65c-.52 0-.94.436-.94.96 0 .526.42.955.94.955a.95.95 0 0 0 .94-.954.956.956 0 0 0-.94-.96zm0 2.113c-.632 0-1.135-.517-1.135-1.152 0-.634.503-1.153 1.134-1.153a1.15 1.15 0 0 1 1.137 1.153c0 .635-.513 1.152-1.137 1.152z"/> </symbol>
<symbol id="lukoil-icon" viewBox="0 0 35 34"> <path fill="#EC1D24" d="M8.263 29.121s-4.042 0-4.042-3.887V5.594s0-1.904 2.02-1.904 2.003 1.903 2.003 1.903v18.414s-.148 1.235 1.39 1.235h17.998l-4.338-10.413s-.695-1.804 0-3.04c.694-1.237 3.642-6.2 3.642-6.2s.813-1.903 2.335-1.903c1.523 0 2.4 1.61 1.771 2.735-.63 1.125-3.475 5.92-3.475 5.92s-.73.992 0 2.34c1.192 2.8 6.026 14.44 6.026 14.44H8.263zm2.69-23.528s.1-1.903 2.003-1.903c1.902 0 1.986 1.903 1.986 1.903V18.86s.026 1.206 1.375 1.206c1.35 0 1.274-1.206 1.274-1.206V5.593s.186-1.903 2.042-1.903c1.856 0 2.003 1.903 2.003 1.903V18.86s-.067 4.88-5.315 5.14c-5.265-.148-5.383-5.14-5.383-5.14l.015-13.267zM0 34h35V0H0v34z"/> </symbol>
<symbol id="miner" viewBox="0 0 512 512" preserveAspectRatio="xMidYMid meet"> <g transform="translate(0.000000,512.000000) scale(0.100000,-0.100000)" fill="#000000" stroke="none"> <path d="M0 2560 l0 -2560 2560 0 2560 0 0 2560 0 2560 -2560 0 -2560 0 0
-2560z"/> </g> </symbol>
<symbol id="n-icon" viewBox="0 0 23 42"> <path fill="#B1060F" fill-rule="evenodd" d="M14.779 0l-.017 9.288-.016 9.288-.761-2.156-.001-.004L13 37.093a709.912 709.912 0 0 0 1.491 4.211c.008.008.559.041 1.225.074 2.017.1 4.518.316 6.414.553.44.055.818.083.84.062.023-.02.035-9.477.028-21.015L22.984 0h-8.205zM0 0v20.986C0 32.53.011 41.984.025 41.998c.013.014.715-.053 1.558-.15.844-.096 2.01-.216 2.592-.266.892-.077 3.554-.251 3.863-.253.09 0 .095-.472.108-8.889l.014-8.888.644 1.857.228.657L10 5.406l-.333-.958C8.877 2.168 8.205.236 8.176.152L8.122 0H0z" clip-rule="evenodd"/> <path fill="url(#a)" fill-rule="evenodd" d="M0 0v11.78l8.25 22.012.002-1.354.014-8.888.653 1.858c3.632 10.34 5.584 15.885 5.596 15.897.007.007.557.04 1.221.074 2.012.1 4.506.316 6.398.552.438.055.815.083.837.062.016-.014.026-4.648.029-11.185L14.79 7.062l-.005 2.247-.016 9.282-.759-2.154A20633.76 20633.76 0 0 1 8.282.152L8.228 0H0z" clip-rule="evenodd"/> <path fill="#E50914" fill-rule="evenodd" d="M0 0l8.276 23.561v-.01l.654 1.857c3.637 10.34 5.591 15.885 5.603 15.897.008.007.558.04 1.223.074 2.015.1 4.512.316 6.406.552.436.055.812.083.838.063l-8.212-23.407v.004l-.76-2.154A19617.821 19617.821 0 0 1 8.292.152L8.238 0H0z" clip-rule="evenodd"/>  </symbol>
<symbol id="nornick-icon" viewBox="0 0 42 27"> <path fill="#00589C" d="M14 17.874L28 27V9.126L14 0v17.874z"/> <path fill="#0080C8" d="M0 13.5C0 20.952 6.272 27 14 27V0C6.272 0 0 6.048 0 13.5zM28 0v27c7.728 0 14-6.048 14-13.5S35.728 0 28 0z"/> </symbol>
<symbol id="okay-icon" viewBox="0 0 71 20"> <path fill="#F00" d="M10.634 3.423c2.773.139 4.768 1.089 5.965 2.85 1.097 1.583 1.397 3.502.898 5.758-.559 2.592-1.835 4.61-3.83 6.055-1.895 1.386-4.11 2.019-6.623 1.9-5.187-.257-7.9-3.74-6.803-8.825.539-2.474 1.756-4.413 3.67-5.818 1.916-1.405 4.15-2.058 6.723-1.92zm-.877 3.84c-1.117-.06-2.055.375-2.793 1.305-.638.772-1.077 1.742-1.317 2.89-.26 1.226-.279 2.235-.02 3.047.34 1.029 1.078 1.563 2.255 1.622.997.06 1.895-.336 2.653-1.128.758-.811 1.296-1.88 1.576-3.225.26-1.187.22-2.197-.1-3.008-.419-.95-1.157-1.464-2.254-1.504zm12.468-3.385h5.446l-1.137 6.036 5.885-6.036h5.785l-6.643 6.827 4.269 8.944h-6.563l-3.172-7.42-1.396 7.44h-5.427l2.953-15.79zm17.335.02H52.407L51.75 7.52h-7.4l-.42 2.256h7.082l-.678 3.621H43.27l-.499 2.434h7.421l-.718 3.84H36.628l.718-3.82.459-2.434.678-3.62.42-2.277.657-3.62zM63.3 0h3.75l-4.329 5.323h-1.556L63.3 0zM58.75 12.249l7.202-8.331H71l-2.992 15.751H62.84l1.496-8.232-7.162 8.232h-5.067l3.013-15.751h5.166l-1.536 8.33zM19.731 0h3.77l-4.328 5.323h-1.556L19.73 0z"/> </symbol>
<symbol id="percent-adv" viewBox="0 0 81 24"> <path fill="#E2231A" d="M9.119 4.633v6.99h6.752v2.21H9.119v7.04h-2.4v-7.04H0v-2.21h6.719v-6.99h2.4zM21.666 21.495h5.08V5.501c0-.459.017-.944.05-1.457l-4.22 3.585c-.144.12-.287.196-.43.23a1.21 1.21 0 0 1-.398 0 1.036 1.036 0 0 1-.347-.132.875.875 0 0 1-.232-.213l-.927-1.26L27.31.213h2.4v21.282h4.667v2.227h-12.71v-2.227zM46.624 0c1.005 0 1.931.142 2.78.426.85.283 1.578.687 2.185 1.211a5.448 5.448 0 0 1 1.44 1.9c.342.741.513 1.565.513 2.471 0 .742-.1 1.408-.298 1.997a4.717 4.717 0 0 1-.827 1.54 4.88 4.88 0 0 1-1.291 1.113 7.287 7.287 0 0 1-1.705.736c1.545.404 2.703 1.08 3.476 2.03.783.95 1.175 2.14 1.175 3.57 0 1.08-.21 2.051-.63 2.913a6.554 6.554 0 0 1-1.687 2.21 7.796 7.796 0 0 1-2.516 1.392 9.616 9.616 0 0 1-3.061.475c-1.258 0-2.334-.153-3.227-.459-.894-.316-1.65-.747-2.268-1.293a6.894 6.894 0 0 1-1.522-1.932 14.715 14.715 0 0 1-1.01-2.44l1.275-.523c.33-.142.65-.18.96-.115.32.066.551.246.694.54.144.306.32.672.53 1.098.22.425.519.834.894 1.227.375.393.85.726 1.423.999.585.273 1.324.41 2.218.41.827 0 1.55-.132 2.168-.394.628-.273 1.147-.622 1.555-1.047.42-.426.734-.9.944-1.425.21-.524.314-1.042.314-1.555a5.74 5.74 0 0 0-.248-1.735 2.903 2.903 0 0 0-.927-1.36c-.452-.381-1.076-.681-1.87-.9-.784-.218-1.793-.327-3.029-.327v-2.112c1.015-.01 1.876-.12 2.582-.327.717-.208 1.296-.491 1.738-.852.452-.36.778-.79.976-1.293.21-.502.315-1.058.315-1.67 0-.676-.11-1.266-.331-1.768a3.318 3.318 0 0 0-.877-1.244 3.708 3.708 0 0 0-1.341-.737 5.364 5.364 0 0 0-1.655-.245c-.596 0-1.153.087-1.671.262-.508.174-.96.42-1.357.736a4.25 4.25 0 0 0-.977 1.097 4.392 4.392 0 0 0-.563 1.408c-.143.382-.325.639-.546.77-.21.12-.518.152-.926.098l-1.54-.262c.155-1.07.453-2.014.894-2.832a6.812 6.812 0 0 1 1.672-2.08 7.184 7.184 0 0 1 2.333-1.26A8.934 8.934 0 0 1 46.624 0zM67.876 5.926c0 .917-.143 1.741-.43 2.472a5.56 5.56 0 0 1-1.158 1.834 4.853 4.853 0 0 1-1.672 1.13 5.155 5.155 0 0 1-2.002.392c-.74 0-1.429-.13-2.069-.393a4.853 4.853 0 0 1-1.671-1.13c-.464-.501-.828-1.112-1.093-1.833-.264-.73-.397-1.555-.397-2.472 0-.938.133-1.773.397-2.504.265-.732.63-1.348 1.093-1.85A4.75 4.75 0 0 1 60.545.426a5.407 5.407 0 0 1 2.069-.393c.75 0 1.445.13 2.085.393.64.262 1.197.644 1.671 1.146.475.502.844 1.118 1.11 1.85.264.73.396 1.566.396 2.504zm-2.283 0c0-.72-.078-1.331-.232-1.833-.155-.502-.37-.912-.645-1.228a2.257 2.257 0 0 0-.944-.704 3.162 3.162 0 0 0-1.158-.213c-.408 0-.79.071-1.142.213a2.281 2.281 0 0 0-.927.704c-.265.316-.474.726-.629 1.228-.154.502-.231 1.113-.231 1.833 0 .71.077 1.315.231 1.818.155.49.364.894.63 1.211.264.306.573.53.926.671.353.131.733.197 1.142.197.408 0 .794-.066 1.158-.197.364-.142.679-.365.944-.671.275-.317.49-.72.645-1.211.154-.503.232-1.108.232-1.818zM76.267.753c.11-.13.237-.245.38-.344.155-.098.36-.147.613-.147h2.135L62.05 23.247c-.1.142-.226.256-.38.344a1.127 1.127 0 0 1-.563.13H58.94L76.267.754zM81 18.188c0 .917-.143 1.736-.43 2.456a5.56 5.56 0 0 1-1.159 1.834 4.855 4.855 0 0 1-1.671 1.13 5.157 5.157 0 0 1-2.003.392c-.75 0-1.445-.131-2.085-.393a4.893 4.893 0 0 1-1.655-1.13c-.463-.502-.827-1.113-1.092-1.833-.265-.72-.397-1.539-.397-2.456 0-.938.132-1.773.397-2.504.265-.743.629-1.365 1.092-1.867a4.787 4.787 0 0 1 1.655-1.146 5.452 5.452 0 0 1 2.085-.393c.74 0 1.43.131 2.069.393a4.56 4.56 0 0 1 1.672 1.146c.474.502.844 1.124 1.108 1.867.276.73.414 1.566.414 2.504zm-2.284 0c0-.72-.077-1.331-.231-1.833-.155-.513-.37-.928-.646-1.245a2.313 2.313 0 0 0-.943-.687 3.162 3.162 0 0 0-1.159-.213c-.408 0-.794.071-1.158.213a2.337 2.337 0 0 0-.927.688c-.265.316-.474.73-.629 1.244-.143.502-.215 1.113-.215 1.833 0 .71.072 1.31.215 1.801.155.491.364.895.63 1.212.264.305.573.529.926.67.364.132.75.197 1.158.197.409 0 .795-.065 1.159-.196.364-.142.678-.366.943-.671.276-.317.491-.72.645-1.212.155-.491.232-1.091.232-1.8z"/> </symbol>
<symbol id="percent-icon" viewBox="0 0 48 48"> <path fill="#EC231A" d="M36 3c5 0 9 4 9 9v24c0 5-4 9-9 9H12c-5 0-9-4-9-9V12c0-5 4-9 9-9h24zm0-3H12C5.4 0 0 5.4 0 12v24c0 6.6 5.4 12 12 12h24c6.6 0 12-5.4 12-12V12c0-6.6-5.4-12-12-12z"/> <path fill="#EC231A" d="M17.1 14.7c1.2 0 2.2 1 2.2 2.3 0 1.2-1 2.3-2.2 2.3-1.2 0-2.2-1-2.2-2.3-.1-1.3.9-2.3 2.2-2.3zm0-3c-2.9 0-5.2 2.4-5.2 5.3s2.4 5.3 5.2 5.3c2.9 0 5.2-2.4 5.2-5.3s-2.3-5.3-5.2-5.3zM31.1 28.9c1.2 0 2.2 1 2.2 2.3 0 1.2-1 2.3-2.2 2.3-1.2 0-2.2-1-2.2-2.3 0-1.3 1-2.3 2.2-2.3zm0-3.1c-2.9 0-5.2 2.4-5.2 5.3s2.4 5.3 5.2 5.3c2.8 0 5.2-2.4 5.2-5.3.1-2.9-2.3-5.3-5.2-5.3zM32.794 13.108L12.543 33.444l2.126 2.117 20.25-20.337-2.125-2.116z"/> </symbol>
<symbol id="phone-icon" viewBox="0 0 12 16"> <path fill="#292929" d="M.278 0c-1.547 6.545 3.566 14.046 10.227 15l.942-2.75-3.137-1.664c-.66-.385-1.757.363-1.757.363-1.808-.877-3.772-3.758-3.937-5.776 0 0 1.098-.748.98-1.502L3.193.144.278 0z"/> </symbol>
<symbol id="polys-icon" viewBox="0 0 33 33"> <path fill="#FFCB08" d="M32.609 14.35L20.78 16.17a.421.421 0 0 1-.357-.13.448.448 0 0 1-.119-.37l.343-6.485c-.01-.321.099-.635.304-.877a1.23 1.23 0 0 1 .804-.431l7.564-1.138c.307-.063.625-.004.89.165.265.17.458.436.54.745l2.214 6.098a.465.465 0 0 1-.135.541.439.439 0 0 1-.175.085l-.044-.023zM23.98 31.54l-5.416-10.944a.465.465 0 0 1 .143-.544.437.437 0 0 1 .178-.082l6.103-1.706c.29-.113.612-.11.9.01.287.121.52.349.65.638l3.467 7.008c.153.28.196.61.122.922-.074.312-.26.584-.52.762l-4.951 4.05a.43.43 0 0 1-.365.114.425.425 0 0 1-.31-.228zm-18.74-3.094l8.507-8.647a.43.43 0 0 1 .365-.113.425.425 0 0 1 .31.227l3.444 5.45a1.286 1.286 0 0 1-.132 1.717l-5.45 5.518a1.197 1.197 0 0 1-1.672.114l-5.272-3.607a.45.45 0 0 1-.19-.307.467.467 0 0 1 .09-.352zM2.396 9.23l10.622 5.688a.437.437 0 0 1 .215.322.455.455 0 0 1-.116.372L9.14 20.607a1.23 1.23 0 0 1-.743.533 1.2 1.2 0 0 1-.896-.135L.711 17.4a1.26 1.26 0 0 1-.62-.675 1.306 1.306 0 0 1-.01-.93l1.705-6.256a.45.45 0 0 1 .232-.306.422.422 0 0 1 .377-.001zM19.33.505L17.37 12.62a.45.45 0 0 1-.232.305.422.422 0 0 1-.377.002l-5.903-2.344a1.233 1.233 0 0 1-.723-.56 1.292 1.292 0 0 1-.152-.919l1.262-7.758c.034-.322.185-.619.424-.83a1.22 1.22 0 0 1 .861-.308l6.313-.205a.421.421 0 0 1 .365.126.447.447 0 0 1 .122.375z"/> </symbol>
<symbol id="red-arrow" viewBox="0 0 19 11"> <path stroke="#EC231A" stroke-width="2" d="M.709.753L9.5 9.027 18.291.753"/> </symbol>
<symbol id="rosn-icon" viewBox="0 0 27 35"> <path fill="#FFD300" d="M11.245 19.944H7.904V35h3.341V19.944zM15.206 16.833h-3.341V35h3.341V16.833zM19.156 19.944H15.82V35h3.335V19.944z"/> <path fill="#07050C" d="M3.337 20.539L0 17.842v-7.706h3.337v10.403zM7.301 23.897l-3.349-2.97V6.724h3.35v17.173zM11.245 3.363H7.904v16.108h3.341V3.363zM15.206 0h-3.341v16.172h3.341V0zM23.663 20.539L27 17.842v-7.706h-3.337v10.403zM19.707 23.897l3.327-2.97V6.724h-3.327v17.173zM19.156 3.363H15.82v16.108h3.335V3.363z"/> </symbol>
<symbol id="rostelecom-icon" viewBox="0 0 21 33"> <path fill="#00A8FF" d="M5.72 15.071C4.314 13.11 3.487 10.725 3.378 8.43c-.01-.165-.01-.325-.01-.494v-.014c0-1.905.563-3.641 1.49-4.954.514-.874 1.662-1.764 3.14-2.347-.665.25-1.308.574-1.922.96-10.691 6.492-4.9 23.182-.534 28.342.062.076.534.593.68.734 2.74 2.682 6.666 3.129 8.764.998 2.046-2.075 1.592-5.843-.982-8.515-2.708-2.898-5.778-4.384-8.282-8.068z"/> <path fill="#00A8FF" d="M11.088.008c-.165.005-.33.015-.496.029.884-.047 1.65.089 2.173.395a3.35 3.35 0 0 1 1.295 1.294c.411.677.619 1.51.619 2.427v.066c-.014 1.858-.855 4.04-2.48 5.866l-.128.14v.006a6.75 6.75 0 0 0-.392.498c-1.606 2.3-1.257 5.311.78 6.723 2.036 1.41 4.993.686 6.604-1.619.08-.113.156-.23.227-.348C23.896 8.278 18.534-.307 11.088.008z"/> <path fill="#F57B20" d="M7.166 12.903c.227-3.825 2.708-6.793 5.542-6.624a4.093 4.093 0 0 1 1.512.419c.298-.852.454-1.694.458-2.48v-.065c0-.917-.203-1.75-.619-2.427A3.44 3.44 0 0 0 13.034.6a3.288 3.288 0 0 0-.274-.17c-.954-.564-2.73-.554-4.559.114-1.583.578-2.811 1.51-3.35 2.422-.926 1.318-1.488 3.053-1.488 4.954 0 .165.005.33.014.494.104 2.296.936 4.68 2.344 6.652 1.138 1.674 2.39 2.897 3.675 4.003-1.474-1.284-2.38-3.594-2.23-6.167z"/> </symbol>
<symbol id="rus-adv" viewBox="0 0 81 81"> <path fill="#E2231A" fill-rule="evenodd" d="M55.463 27.2c-1.266-1.105-3.087-1.08-4.132-.76.684-.835 2.28-1.522 2.748-1.605.358.134 1.384 1.183 1.384 2.365zm4.044-4.576c-.833-4.435-11.186-1.496-16.4-3.38-.1 1.293 1.605 3.364 3.236 4.13-2.787 2.41-5.29 7.262-5.796 13.19-.503-5.928-3.006-10.78-5.793-13.19 1.63-.765 3.337-2.837 3.236-4.13-5.214 1.884-15.567-1.054-16.402 3.38-.175.94.279 2.37.768 2.78.088-.297.546-1.27 1.99-1.488 7.293-1.097 13.383 10.093 7.886 14.618-.084.07-.036.196.077.196h16.48c.112 0 .16-.127.077-.196-5.498-4.524.591-15.714 7.886-14.617 1.444.218 1.9 1.19 1.988 1.488.49-.412.944-1.841.767-2.78v-.002zm1.774-10.178c-.131-.419 4.146-.43 4.146 2.236 0 1.785-2.559 2.63-2.559 4.484 0 .863.933 1.496 1.22 1.496-.66-2.975 2.065-1.418 2.8-.862-1.461-4 1.83-3.976 1.506-5.81-.226-1.282-3.087-.895-4.122-1.544-1.837-1.15-4.01-5.63-5.443-1.15 2.67 2.467 1.117 6.1-2.273 6.1 0 0-.02.531.012.574 4.043-.197 5.453-3.155 4.713-5.524zM14.109 19.8c.736-.556 3.46-2.113 2.803.862.285 0 1.217-.633 1.217-1.496 0-1.853-2.558-2.699-2.558-4.485 0-2.664 4.277-2.654 4.146-2.235-.739 2.369.67 5.327 4.714 5.524.03-.043.011-.575.011-.575-3.389 0-4.942-3.632-2.273-6.1-1.433-4.48-3.606 0-5.444 1.15-1.035.65-3.896.263-4.121 1.545-.323 1.835 2.967 1.81 1.505 5.81zm11.48 7.4c1.268-1.105 3.09-1.08 4.133-.76-.682-.835-2.28-1.522-2.747-1.605-.358.134-1.386 1.183-1.386 2.365zM42.472 2.394L40.499 0l-1.972 2.394 1.971 2.519 1.973-2.52zM53.73 9.632L52.328 7.93l-1.402 1.7 1.402 1.663 1.402-1.662zm11.376 49.173l-1.777-1.873-1.778 1.873 1.778 1.643 1.778-1.643zM30.072 9.632L28.67 7.93l-1.401 1.7 1.402 1.663 1.402-1.662zm-4.017 8.338h5.232c4.398 0 6.377-2.687 6.975-5.018h4.475c.599 2.33 2.576 5.018 6.976 5.018h5.231s.915-1.236 1.145-1.848c.826-2.202-.23-3.23-1.77-3.23l-1.991 1.797-1.991-1.796c-1.54 0-2.597 1.027-1.77 3.23.105.28.358.694.597 1.058-1.857-.254-4.226-1.519-4.746-4.229 0 0 1.372-2.168 1.716-3.046 1.237-3.157-.343-4.447-2.653-4.447L40.5 8.95l-2.982-3.49c-2.31 0-3.889 1.29-2.651 4.447.343.877 1.716 3.046 1.716 3.046-.521 2.71-2.89 3.975-4.747 4.23.24-.365.492-.778.597-1.06.825-2.202-.228-3.23-1.77-3.23l-1.991 1.798-1.992-1.796c-1.54 0-2.594 1.026-1.77 3.228.23.612 1.147 1.848 1.147 1.848zM80.14 34.112c-1.01.508-6.933 3.27-14.522 2.249.079-.36.146-.723.2-1.088 5.05-.601 9.156-1.454 11.772-2.903 2.983-1.652 4.287-5.596 2.781-8.53-.039-.074-.147-.088-.2-.025-.826.945-6.012 6.561-14.184 8.307-.02-.421-.06-.842-.116-1.26 3.969-2.24 7.844-4.822 9.69-7.182 2.788-3.57 2.531-8.122-.123-10.443a.127.127 0 0 0-.188.027c-.84 1.379-8.699 14.024-17.328 19.483a14.65 14.65 0 0 1-.318.197.405.405 0 0 0-.065.66c.996.897 1.614 2.146 1.614 3.533 0 2.411-1.867 4.417-4.335 4.852-1.254.242-3.064.171-4.803-.401-.078-.025-.16.026-.16.104v7.636c0 .123.188.154.233.036 1.057-2.788 4.221-3.38 5.605-3.38.498 2.98 1.388 5.447 2.543 6.776 1.882 2.158 4.955 2.128 6.288.636a.108.108 0 0 0-.03-.167c-.783-.448-5.262-3.186-6.159-7.672.352-.119.696-.26 1.03-.422 1.446 2.382 3.55 4.504 5.245 5.314 2.846 1.359 5.451.698 6.607-1.291.042-.07-.01-.158-.094-.165-1.76-.14-7.164-1.682-9.464-5.437.266-.24.52-.494.761-.759 2.408 1.825 5.811 3.437 8.248 3.767 2.851.385 6.082-.52 6.16-3.82.001-.067-.058-.12-.129-.117-1.014.061-7.724.352-12.506-2.38.166-.315.321-.635.465-.96 0 0 7.225 1.7 10.648 1.137 3.402-.559 5.395-3.083 5.01-6.224-.01-.078-.102-.125-.176-.088zm-63.8 5.174c.145.325.3.645.466.96-4.78 2.73-11.488 2.442-12.506 2.38-.072-.004-.131.053-.13.118.08 3.299 3.31 4.205 6.16 3.819 2.436-.33 5.84-1.942 8.248-3.766.241.265.495.518.761.759-2.301 3.755-7.703 5.296-9.463 5.436-.086.008-.135.095-.095.166 1.156 1.989 3.761 2.65 6.609 1.291 1.692-.81 3.797-2.932 5.242-5.314.335.162.679.303 1.03.422-.896 4.486-5.375 7.223-6.158 7.672a.11.11 0 0 0-.03.167c1.332 1.492 4.407 1.522 6.289-.637 1.155-1.328 2.044-3.796 2.541-6.775 1.386 0 4.549.592 5.606 3.38.046.117.233.087.233-.036v-7.636c0-.078-.082-.13-.16-.105-1.739.573-3.55.643-4.802.4-2.47-.434-4.337-2.439-4.337-4.85 0-1.386.62-2.636 1.614-3.534a.404.404 0 0 0-.062-.659c-.108-.064-.215-.13-.321-.196-8.624-5.457-16.48-18.093-17.327-19.48a.129.129 0 0 0-.191-.029c-2.65 2.323-2.908 6.873-.119 10.441 1.846 2.36 5.72 4.942 9.688 7.183a14.96 14.96 0 0 0-.114 1.26C6.845 30.377 1.663 24.77.83 23.818c-.056-.065-.166-.052-.204.022-1.503 2.936-.198 6.877 2.78 8.53 2.617 1.448 6.723 2.301 11.773 2.902.055.365.121.728.2 1.088C7.8 37.381 1.879 34.626.86 34.113c-.075-.038-.166.01-.176.088-.383 3.141 1.608 5.663 5.01 6.222 3.422.563 10.647-1.137 10.647-1.137zM63.33 62.86l-2.633-2.062c-1.05.623-1.822 1.612-2.122 2.77-1.584.221-5.901-.733-5.481-1.366 4.731-6.625 1.112-10.57-3.238-10.35v4.449c0 1.429-1.252 2.587-2.795 2.587h-3.004c-2.155 0-3.557 2.156-3.557 2.156s-1.403-2.156-3.558-2.156h-3.003c-1.545 0-2.795-1.158-2.795-2.587v-4.449c-4.35-.22-7.971 3.725-3.238 10.35.416.626-4.022 1.63-6.103 1.376a3.087 3.087 0 0 0-2.226-.923c-.376 0-.75.067-1.103.197 0 0-8.18-7.709-8.329-7.784l.067-.156c.467-.867-.246-1.813-.697-1.746.524-.626.548-3.363-2.358-3.996.086.55.129 1.672.129 1.672s-2.242-1.207-3.369-.165c-.989 1.166.384 3.28.384 3.28s-1.147.028-1.713-.02c.831 2.8 3.62 2.602 4.224 2.05-.04.444.97 1.08 1.824.57l.375-.18c.066.088 8.033 7.58 8.033 7.58a2.595 2.595 0 0 0-.42 1.911c.189 1.105 1.113 2.021 2.295 2.26a3.19 3.19 0 0 0 2.248-.362l2.108 1.949c.187.17.442.275.725.255.516-.035.902-.45.863-.928a.826.826 0 0 0-.28-.54c-.034-.037-2.148-1.991-2.148-1.991 1.744-1.217 4.994-2.075 7.691-2.075.474 0 .697-.4.534-.79-1.222-2.925 1.405-5.045 4.122-3.32 1.186.752 2.39 2.234 3.297 4.706-4.459 1.075-10.057 4.035-11.19 7.267-.436 1.248 1.005 2.95 2.754 3.291a.12.12 0 0 0 .142-.09c.914-4.826 6.126-8.42 8.838-9.031l.228.607c-2.954 1.391-5.818 4.324-6.636 7.81-.376 1.598 1.413 3.037 2.89 3.431.074.02.147-.032.151-.103.281-4.41 2.237-8.155 3.99-9.858.047.333.084.668.108 1.004 0 0-1.795 4.976-1.795 8.607 0 1.689 2.522 2.868 2.895 3.033.465-.165 2.985-1.344 2.985-3.033 0-3.631-1.793-8.608-1.793-8.608.024-.335.06-.67.11-1.003 1.75 1.704 3.708 5.447 3.987 9.857a.12.12 0 0 0 .15.104c1.48-.394 3.267-1.833 2.893-3.43-.82-3.487-3.683-6.42-6.636-7.81.135-.363.09-.245.227-.609 2.713.61 7.924 4.206 8.838 9.03a.12.12 0 0 0 .141.092c1.749-.342 3.192-2.044 2.753-3.291-1.13-3.232-6.73-6.193-11.19-7.268.91-2.471 2.114-3.953 3.3-4.705 2.715-1.725 5.343.394 4.12 3.319-.163.391.059.79.534.79 3.051 0 6.81 1.097 8.297 2.569.95 1.42 2.707 2.327 4.689 2.133 2.251-.22 4.087-1.903 4.341-3.985.222-1.824-.726-3.462-2.237-4.354l-2.634 2.062h.001zM43.925 49.572c.938-.346 2.409-.066 2.359 1.282-.012.306.418.306.45-.006.28-2.019-1.09-2.6-2.524-2.364-.178-.694-.324-1.3-.49-1.901-.132-.487-.18-1.4.385-1.4.305 0 .182.85.153 1.215-.025.321.091.516.353.525.163.007.367-.2.489-.338.82-.924 1.011-2.355.05-3.044-.805-.58-2.82-.148-3.373.676-.084-.31-.483-.823-.675-1.047-.186-.218-.234-.367.023-.559.122-.092.49-.456.49-.831 0-.222-.174-.632-.723-.632-.434 0-.916.299-.916.965 0 .148.037.306.133.477-.274-.045-1.018-.027-1.4.067l5.282 14.43c1.513-.743 2.621-1.919 2.621-3.181 0-1.076-1.592-.72-2.365.12-.249-1.364-.47-2.624-.712-3.88-.066-.346.111-.47.39-.575v.001zm-7.47-9.802l1.11 3.07c-.95.224-2.478.914-2.478 1.827 0 1.216 2.162 2.008 3.411 1.913-.062.278.01.525.204.75-.453 0-1.31.211-1.59.512-.663-.614-1.7-.838-2.193-.464-.495.377-.51 1.016.007 1.737.36.5.496.993.09 1.572 1.507 0 .952-1.95 1.543-1.95-.078.378-.03.816.14 1.3.114.323.114.552-.08.863-.486.773-1.242 2.55-1.14 4.156-.493-.003-.745-.123-.57-.795.064-.25-.09-.428-.296-.12-.227.34-.336.92-.336 1.168 0 1.43 1.712 1.719 2.365 1.416 1.89 1.821 5.603 1.335 6.846.724L36.95 39.596c-.133-.337-.613-.176-.495.174zm-.226 14.706c-.135-.735.892-2.048 2.2-3.316-.279.826-.106 2.25.44 2.74-.949 0-2.074.177-2.64.576z" clip-rule="evenodd"/> </symbol>
<symbol id="rus-gerb" viewBox="0 0 35 35"> <path fill="#828282" fill-rule="evenodd" d="M23.966 11.753c-.547-.478-1.334-.467-1.786-.328.296-.361.985-.658 1.188-.694.154.058.598.511.598 1.022zm1.747-1.977c-.36-1.917-4.834-.647-7.087-1.46-.043.558.694 1.453 1.399 1.784-1.205 1.04-2.286 3.138-2.505 5.7-.217-2.562-1.299-4.66-2.503-5.7.705-.33 1.442-1.226 1.398-1.784-2.253.813-6.726-.456-7.087 1.46-.075.406.12 1.024.332 1.201.038-.128.236-.549.86-.643 3.151-.474 5.783 4.361 3.407 6.316-.036.03-.015.085.034.085h7.12c.05 0 .07-.055.034-.085-2.376-1.954.256-6.79 3.407-6.316.624.095.822.515.86.643.211-.177.407-.796.33-1.201zm.766-4.398c-.056-.181 1.792-.186 1.792.966 0 .771-1.106 1.137-1.106 1.938 0 .373.403.646.527.646-.285-1.285.893-.613 1.21-.372-.631-1.73.79-1.718.65-2.511-.096-.554-1.333-.387-1.78-.667-.794-.497-1.733-2.433-2.352-.497 1.154 1.066.482 2.635-.982 2.635 0 0-.008.23.005.249 1.747-.085 2.356-1.364 2.036-2.387zM6.096 8.556c.318-.24 1.496-.913 1.211.372.124 0 .527-.273.527-.646 0-.801-1.106-1.167-1.106-1.938 0-1.152 1.848-1.147 1.792-.966-.32 1.024.29 2.302 2.037 2.387.012-.019.004-.249.004-.249-1.464 0-2.135-1.57-.982-2.636-.619-1.935-1.558 0-2.352.498-.447.28-1.684.113-1.78.667-.14.793 1.281.782.65 2.51zm4.961 3.197c.548-.478 1.335-.467 1.786-.328-.295-.361-.985-.658-1.187-.694-.155.058-.599.511-.599 1.022zm7.295-10.719L17.5 0l-.853 1.034.852 1.089.853-1.089zm4.865 3.128l-.606-.735-.606.735.606.718.606-.718zm4.915 21.248l-.768-.81-.768.81.768.71.768-.71zM12.994 4.162l-.606-.735-.605.735.606.718.605-.718zm-1.736 3.603h2.26c1.901 0 2.756-1.161 3.015-2.168h1.934c.258 1.007 1.113 2.168 3.014 2.168h2.26s.396-.534.495-.799c.357-.951-.1-1.395-.765-1.395l-.86.776-.86-.776c-.666 0-1.122.444-.765 1.395.045.122.154.3.258.458-.802-.11-1.826-.656-2.05-1.827 0 0 .592-.937.74-1.317.535-1.364-.148-1.921-1.146-1.921L17.5 3.867 16.21 2.359c-.998 0-1.68.557-1.145 1.921.148.38.74 1.317.74 1.317-.224 1.17-1.248 1.717-2.05 1.827.104-.157.213-.336.258-.458.356-.951-.099-1.395-.765-1.395l-.86.776-.86-.776c-.667 0-1.122.444-.765 1.396.099.264.494.798.494.798zm23.37 6.974c-.436.22-2.995 1.414-6.274.972.034-.155.062-.312.086-.47 2.182-.26 3.956-.628 5.087-1.254 1.288-.714 1.852-2.418 1.201-3.686-.017-.032-.063-.038-.087-.01-.356.408-2.597 2.835-6.128 3.589a6.444 6.444 0 0 0-.05-.545c1.715-.968 3.389-2.083 4.187-3.103 1.205-1.542 1.094-3.51-.053-4.512a.055.055 0 0 0-.081.011c-.363.596-3.76 6.06-7.488 8.419a6.283 6.283 0 0 1-.137.085.175.175 0 0 0-.028.285c.43.388.697.928.697 1.527 0 1.042-.807 1.908-1.873 2.096-.542.105-1.324.074-2.076-.173-.033-.01-.068.011-.068.045v3.3c0 .053.08.066.1.015.457-1.204 1.824-1.46 2.422-1.46.215 1.287.6 2.353 1.099 2.927.813.933 2.14.92 2.717.275a.047.047 0 0 0-.013-.072c-.339-.193-2.274-1.376-2.662-3.315.152-.051.301-.112.446-.182.624 1.03 1.534 1.946 2.266 2.296 1.23.587 2.355.302 2.855-.558.018-.03-.004-.068-.041-.071-.76-.06-3.095-.727-4.09-2.35a4.78 4.78 0 0 0 .33-.327c1.04.788 2.51 1.485 3.563 1.627 1.232.167 2.628-.225 2.662-1.65 0-.03-.025-.053-.055-.05-.438.025-3.338.151-5.404-1.03.072-.135.139-.274.2-.414 0 0 3.123.734 4.602.491 1.47-.241 2.33-1.332 2.165-2.69-.005-.033-.045-.053-.076-.037zM7.062 16.976c.062.14.129.28.201.415-2.066 1.18-4.964 1.055-5.404 1.029-.03-.002-.057.023-.056.05.034 1.426 1.43 1.817 2.662 1.65 1.052-.142 2.523-.838 3.563-1.627.105.115.215.224.33.328-.995 1.623-3.33 2.289-4.09 2.35-.037.003-.058.04-.04.07.499.86 1.624 1.146 2.855.559.731-.35 1.64-1.267 2.265-2.296.145.07.294.13.446.182C9.405 21.624 7.47 22.806 7.13 23a.047.047 0 0 0-.013.072c.576.645 1.904.658 2.718-.275.499-.574.883-1.64 1.098-2.928.599 0 1.965.256 2.422 1.461.02.05.101.038.101-.016v-3.299c0-.034-.036-.056-.07-.045-.75.247-1.533.277-2.074.173-1.067-.188-1.874-1.054-1.874-2.096 0-.6.268-1.14.697-1.527a.175.175 0 0 0-.027-.285 6.354 6.354 0 0 1-.139-.085c-3.726-2.357-7.12-7.818-7.486-8.417A.056.056 0 0 0 2.4 5.72c-1.145 1.003-1.256 2.97-.051 4.511.797 1.02 2.472 2.136 4.186 3.104-.024.18-.04.362-.05.544C2.958 13.126.72 10.703.36 10.292c-.024-.028-.072-.022-.088.01-.65 1.268-.086 2.971 1.202 3.685 1.13.626 2.904.995 5.086 1.255.024.157.053.314.087.47-3.276.44-5.834-.75-6.274-.972-.033-.016-.072.004-.076.038-.166 1.357.694 2.447 2.164 2.689 1.48.243 4.6-.492 4.6-.492zm20.303 10.187l-1.137-.891c-.454.269-.788.696-.918 1.197-.684.095-2.55-.317-2.368-.59 2.045-2.863.481-4.568-1.398-4.473v1.922c0 .618-.542 1.118-1.209 1.118h-1.297c-.931 0-1.538.932-1.538.932s-.606-.932-1.537-.932h-1.297c-.668 0-1.208-.5-1.208-1.117v-1.923c-1.88-.095-3.445 1.61-1.4 4.472.18.27-1.737.704-2.636.595a1.334 1.334 0 0 0-.962-.399c-.163 0-.324.029-.477.085 0 0-3.534-3.33-3.599-3.363l.03-.068c.2-.374-.107-.783-.302-.754.226-.27.237-1.453-1.019-1.727.037.238.056.723.056.723s-.97-.522-1.456-.072c-.427.504.166 1.418.166 1.418s-.496.012-.74-.009c.36 1.21 1.564 1.124 1.825.886-.017.192.419.466.788.246l.162-.078c.029.038 3.471 3.276 3.471 3.276-.158.233-.233.52-.181.826.081.477.48.873.991.976.36.072.7.002.972-.156l.91.842a.42.42 0 0 0 .314.11c.223-.015.39-.195.373-.401a.357.357 0 0 0-.121-.234l-.928-.86c.753-.526 2.158-.896 3.323-.896.205 0 .301-.173.23-.342-.527-1.264.608-2.18 1.782-1.434.512.325 1.032.965 1.424 2.033-1.926.465-4.345 1.744-4.835 3.14-.188.54.434 1.275 1.19 1.423a.051.051 0 0 0 .062-.04c.395-2.085 2.647-3.638 3.819-3.902l.098.263c-1.276.6-2.514 1.868-2.867 3.374-.163.69.61 1.312 1.248 1.483.033.008.064-.014.066-.045.121-1.905.966-3.523 1.723-4.26.021.144.037.29.047.434 0 0-.775 2.15-.775 3.72 0 .73 1.09 1.239 1.25 1.31.202-.071 1.29-.58 1.29-1.31 0-1.57-.774-3.72-.774-3.72.01-.145.026-.29.047-.434.757.737 1.602 2.354 1.723 4.26a.052.052 0 0 0 .065.045c.64-.17 1.412-.793 1.25-1.483-.354-1.506-1.591-2.773-2.868-3.374l.098-.263c1.173.264 3.424 1.817 3.82 3.902a.051.051 0 0 0 .06.04c.756-.148 1.38-.884 1.19-1.423-.488-1.396-2.908-2.676-4.835-3.14.393-1.068.913-1.708 1.425-2.033 1.174-.746 2.31.17 1.781 1.434-.07.169.025.341.23.341 1.32 0 2.943.474 3.586 1.11.41.614 1.17 1.006 2.026.922.973-.095 1.766-.822 1.876-1.722.095-.788-.314-1.496-.967-1.881l-1.138.89zM18.98 21.42c.405-.15 1.04-.029 1.02.554-.006.132.18.132.193-.003.122-.872-.47-1.123-1.09-1.021-.077-.3-.14-.562-.212-.822-.057-.21-.078-.605.167-.605.131 0 .078.367.066.526-.01.138.04.222.152.226.07.003.159-.086.212-.146.354-.4.436-1.017.021-1.315-.348-.25-1.218-.064-1.457.292-.036-.134-.209-.356-.292-.452-.08-.094-.101-.159.01-.242.053-.04.211-.197.211-.36 0-.095-.074-.272-.312-.272-.187 0-.395.129-.395.417 0 .064.015.132.057.206a2.122 2.122 0 0 0-.605.03l2.283 6.234c.653-.32 1.132-.829 1.132-1.375 0-.464-.688-.31-1.022.052-.107-.589-.203-1.133-.308-1.676-.028-.15.048-.203.17-.248zm-3.228-4.236l.48 1.327c-.41.097-1.071.395-1.071.79 0 .525.934.867 1.474.826a.355.355 0 0 0 .088.325c-.196 0-.566.09-.687.22-.286-.265-.734-.362-.947-.2-.214.163-.22.439.003.75.155.216.214.43.039.68.65 0 .41-.843.666-.843a1.06 1.06 0 0 0 .061.562c.049.14.049.239-.035.373-.21.334-.537 1.101-.492 1.796-.214-.002-.322-.054-.247-.344.028-.108-.04-.185-.128-.052a1.112 1.112 0 0 0-.145.505c0 .618.74.742 1.022.612.817.787 2.42.577 2.958.313l-2.825-7.715c-.057-.145-.264-.076-.214.075zm-.097 6.355c-.059-.317.385-.885.95-1.433-.12.357-.046.972.19 1.184-.41 0-.896.077-1.14.25z" clip-rule="evenodd"/> </symbol>
<symbol id="strategys-icon" viewBox="0 0 48 55"> <path fill="#fff" d="M36 2H2v51.494h44.8V13.822L36 2z"/> <path fill="#EC231A" d="M35.3 3.406l9.3 10.62v37.468H3.4V3.406h31.9zM36.9 0H0v55h48V12.723L36.9 0z"/> <path fill="#EC231A" d="M16 17.406c1.4 0 2.6 1.202 2.6 2.605 0 1.402-1.2 2.605-2.6 2.605-1.4 0-2.6-1.203-2.6-2.605 0-1.503 1.1-2.605 2.6-2.605zM16 14c-3.3 0-6 2.705-6 6.01 0 3.307 2.7 6.012 6 6.012s6-2.705 6-6.011S19.3 14 16 14zM32 33.506c1.4 0 2.6 1.203 2.6 2.605 0 1.403-1.2 2.605-2.6 2.605-1.4 0-2.6-1.202-2.6-2.605 0-1.402 1.2-2.605 2.6-2.605zM32 30c-3.3 0-6 2.705-6 6.01 0 3.307 2.7 6.012 6 6.012s6-2.705 6-6.011S35.4 30 32 30zM34.122 14.836L11 38l2.404 2.408 23.122-23.164-2.404-2.408z"/> </symbol>
<symbol id="transneft-icon" viewBox="0 0 37 33"> <path fill="#0F4C8F" d="M14.63 26.477c-5.146-2.405-8.636-6.674-9.658-11.233-.51-2.569.4-4.269.985-5.213.635-1.02 1.42-1.083 1.42-1.083s-.797-.39-1.869-.542c-1.346-.201-3.103-.05-4.2 1.663A16.603 16.603 0 0 0 0 16.428c.025 4.332 1.645 9.344 6.58 13.336a16.254 16.254 0 0 0 4.573 2.405c.225.075.462.138.686.201.723.202 1.433.353 2.118.454.05 0 .1.012.15.025l.636.075c.311.026.623.063.934.063.162 0 .312.013.474.013h.162c.299 0 .598-.013.897-.025h.012c.3-.013.599-.038.898-.076.037 0 .062-.012.1-.012.249-.038.498-.076.735-.114.15-.025.299-.05.436-.075.025 0 .05-.013.075-.013 2.729-.567 5.01-1.826 6.742-3.11a16.41 16.41 0 0 0 2.729-2.708c-4 1.915-9.334 1.94-14.307-.39zM5.87 7.248c2.804-3.589 7.115-5.944 11.988-5.944a15.19 15.19 0 0 1 9.546 3.375C24.488 1.934 20.574.234 16.263.234c-5.695 0-10.692 2.96-13.609 7.442.823-.378 2.007-.642 3.216-.428z"/> <path fill="#0F4C8F" d="M15.428 25.243a15.844 15.844 0 0 0 6.48 2.027c.922-.227 1.82-.567 2.605-1.02 3.128-1.977 12.375-14.935 12.375-14.935s-5.035-1.045-7.216.567c-2.193 1.612-3.826 4.18-6.256 6.938-2.43 2.77-3.49 4.509-5.633 5.05-1.595.416-3.103.34-4.449.038a28.96 28.96 0 0 0 2.094 1.335z"/> <path fill="#DC0D15" d="M30.383 25.822c1.931-1.423 6.455-7.656 6.455-7.656s-3.477-1.839-6.617 0c-3.153 1.85-3.053 2.317-6.194 4.924-3.128 2.606-5.458 2.896-7.19 2.77-.1 0-.188-.025-.287-.025 4.523 2.103 10.393 2.455 13.833-.013z"/> <path fill="#0F4C8F" d="M37 .284s-5.122-1.41-9.11 2.053c-2.854 2.506-9.022 19.267-13.87 20.211-.935.189-1.695.202-2.318.126l.025.025a9.98 9.98 0 0 0 2.854-.164c4.847-.944 11.253-16.42 14.219-18.8 2.966-2.368 6.517-1.776 6.517-1.776l-2.766 5.402L37 .284z"/> </symbol>
<symbol id="up-adv" viewBox="0 0 84 55"> <path fill="#E2231A" d="M7.974 9.347h1.953v.918c0 .096-.03.177-.09.243-.054.066-.141.099-.261.099H7.974V14H6.57v-3.393H.846a.518.518 0 0 1-.315-.099.483.483 0 0 1-.162-.261l-.162-.819L6.48 1.103h1.494v8.244zM6.57 4.028c0-.156.003-.324.009-.504a6.3 6.3 0 0 1 .063-.567l-4.698 6.39H6.57V4.028zm13.771 3.528c0 1.128-.123 2.106-.369 2.934-.24.822-.57 1.503-.99 2.043-.42.54-.918.942-1.494 1.206a4.315 4.315 0 0 1-1.836.396c-.66 0-1.275-.132-1.845-.396a4.027 4.027 0 0 1-1.476-1.206c-.42-.54-.75-1.221-.99-2.043-.24-.828-.36-1.806-.36-2.934 0-1.128.12-2.106.36-2.934.24-.828.57-1.512.99-2.052.42-.546.912-.951 1.476-1.215a4.336 4.336 0 0 1 1.845-.396c.654 0 1.266.132 1.836.396a3.954 3.954 0 0 1 1.494 1.215c.42.54.75 1.224.99 2.052.246.828.37 1.806.37 2.934zm-1.665 0c0-.984-.084-1.809-.252-2.475-.162-.672-.384-1.212-.666-1.62-.276-.408-.597-.699-.963-.873a2.56 2.56 0 0 0-2.286 0c-.366.174-.687.465-.963.873-.276.408-.498.948-.666 1.62-.162.666-.243 1.491-.243 2.475s.081 1.809.243 2.475c.168.666.39 1.203.666 1.611.276.408.597.702.963.882a2.632 2.632 0 0 0 2.286 0c.366-.18.687-.474.963-.882.282-.408.504-.945.666-1.611.168-.666.252-1.491.252-2.475zm12.107 0c0 1.128-.123 2.106-.37 2.934-.24.822-.57 1.503-.99 2.043-.42.54-.917.942-1.493 1.206a4.315 4.315 0 0 1-1.836.396c-.66 0-1.275-.132-1.845-.396a4.027 4.027 0 0 1-1.476-1.206c-.42-.54-.75-1.221-.99-2.043-.24-.828-.36-1.806-.36-2.934 0-1.128.12-2.106.36-2.934.24-.828.57-1.512.99-2.052.42-.546.912-.951 1.476-1.215a4.336 4.336 0 0 1 1.845-.396c.654 0 1.266.132 1.836.396a3.954 3.954 0 0 1 1.494 1.215c.42.54.75 1.224.99 2.052.246.828.369 1.806.369 2.934zm-1.665 0c0-.984-.084-1.809-.252-2.475-.162-.672-.384-1.212-.666-1.62-.276-.408-.597-.699-.963-.873a2.56 2.56 0 0 0-2.286 0c-.366.174-.687.465-.963.873-.276.408-.498.948-.666 1.62-.162.666-.243 1.491-.243 2.475s.08 1.809.243 2.475c.168.666.39 1.203.666 1.611.276.408.597.702.963.882a2.632 2.632 0 0 0 2.286 0c.366-.18.687-.474.963-.882.282-.408.504-.945.666-1.611.168-.666.252-1.491.252-2.475zm14.912 0c0 1.128-.123 2.106-.37 2.934-.24.822-.57 1.503-.99 2.043-.42.54-.917.942-1.493 1.206a4.315 4.315 0 0 1-1.836.396c-.66 0-1.275-.132-1.845-.396a4.027 4.027 0 0 1-1.476-1.206c-.42-.54-.75-1.221-.99-2.043-.24-.828-.36-1.806-.36-2.934 0-1.128.12-2.106.36-2.934.24-.828.57-1.512.99-2.052.42-.546.912-.951 1.476-1.215A4.336 4.336 0 0 1 39.34.959c.654 0 1.266.132 1.836.396A3.954 3.954 0 0 1 42.67 2.57c.42.54.75 1.224.99 2.052.246.828.369 1.806.369 2.934zm-1.665 0c0-.984-.084-1.809-.252-2.475-.162-.672-.384-1.212-.666-1.62-.276-.408-.597-.699-.963-.873a2.559 2.559 0 0 0-2.286 0c-.366.174-.687.465-.963.873-.276.408-.498.948-.666 1.62-.162.666-.243 1.491-.243 2.475s.08 1.809.243 2.475c.168.666.39 1.203.666 1.611.276.408.597.702.963.882a2.632 2.632 0 0 0 2.286 0c.366-.18.687-.474.963-.882.282-.408.504-.945.666-1.611.168-.666.252-1.491.252-2.475zm12.106 0c0 1.128-.123 2.106-.369 2.934-.24.822-.57 1.503-.99 2.043-.42.54-.918.942-1.494 1.206a4.315 4.315 0 0 1-1.836.396c-.66 0-1.275-.132-1.845-.396a4.027 4.027 0 0 1-1.476-1.206c-.42-.54-.75-1.221-.99-2.043-.24-.828-.36-1.806-.36-2.934 0-1.128.12-2.106.36-2.934.24-.828.57-1.512.99-2.052.42-.546.912-.951 1.476-1.215a4.336 4.336 0 0 1 1.845-.396c.654 0 1.266.132 1.836.396a3.954 3.954 0 0 1 1.494 1.215c.42.54.75 1.224.99 2.052.246.828.369 1.806.369 2.934zm-1.665 0c0-.984-.084-1.809-.252-2.475-.162-.672-.384-1.212-.666-1.62-.276-.408-.597-.699-.963-.873a2.56 2.56 0 0 0-2.286 0c-.366.174-.687.465-.963.873-.276.408-.498.948-.666 1.62-.162.666-.243 1.491-.243 2.475s.081 1.809.243 2.475c.168.666.39 1.203.666 1.611.276.408.597.702.963.882a2.632 2.632 0 0 0 2.286 0c.366-.18.687-.474.963-.882.282-.408.504-.945.666-1.611.168-.666.252-1.491.252-2.475zm12.106 0c0 1.128-.123 2.106-.369 2.934-.24.822-.57 1.503-.99 2.043-.42.54-.918.942-1.494 1.206a4.315 4.315 0 0 1-1.836.396c-.66 0-1.275-.132-1.845-.396a4.027 4.027 0 0 1-1.476-1.206c-.42-.54-.75-1.221-.99-2.043-.24-.828-.36-1.806-.36-2.934 0-1.128.12-2.106.36-2.934.24-.828.57-1.512.99-2.052.42-.546.912-.951 1.476-1.215a4.336 4.336 0 0 1 1.845-.396c.654 0 1.266.132 1.836.396a3.954 3.954 0 0 1 1.494 1.215c.42.54.75 1.224.99 2.052.246.828.37 1.806.37 2.934zm-1.665 0c0-.984-.084-1.809-.252-2.475-.162-.672-.384-1.212-.666-1.62-.276-.408-.597-.699-.963-.873a2.56 2.56 0 0 0-2.286 0c-.366.174-.687.465-.963.873-.276.408-.498.948-.666 1.62-.162.666-.243 1.491-.243 2.475s.081 1.809.243 2.475c.168.666.39 1.203.666 1.611.276.408.597.702.963.882a2.632 2.632 0 0 0 2.286 0c.366-.18.687-.474.963-.882.282-.408.504-.945.666-1.611.168-.666.252-1.491.252-2.475z"/> <path stroke="#CCC" d="M80.5 54V1"/> <path stroke="#CCC" stroke-dasharray="3 2" d="M59.5 54V33"/> <path stroke="#E2231A" stroke-width="2" d="M0 54h5.684C38.468 54 67.928 33.98 80 3.5"/> <circle cx="80.5" cy="3.5" r="3.5" fill="#E2231A"/> </symbol>
<symbol id="webbank" viewBox="0 0 80 24"> <path fill="#3989C0" d="M46.293 4.2h.634c.536 0 .878-.25.878-.75s-.342-.75-.878-.75h-.634v1.5zM48.439 0v.9h-2.146v1.05h.78c1.415 0 1.756.95 1.756 1.6 0 .55-.341 1.45-1.756 1.45h-1.805V0h3.171zm3.854 3.05L51.61 1l-.683 2.05h1.366zM52.195 0l1.951 5h-1.122l-.39-1.15h-2L50.244 5H49.17l1.95-5h1.074zm3.512 0v2h2V0h.976v5h-.976V2.85h-2V5h-.975V0h.975zm4.927 0v2.15h.049L62.439 0h1.17l-2.048 2.25L63.756 5h-1.268l-1.805-2.5h-.049V5h-.976V0h.976zM46.78 10.35c.586 0 .83-.4.83-.8s-.244-.75-.83-.75h-.439v1.55h.44zm0-2.35c1.756 0 1.854 1.25 1.854 1.55 0 .65-.439 1.55-1.707 1.55h-.634V13h-.976V8h1.463zm4.83 3.05L50.878 9l-.683 2.05h1.415zM51.512 8l1.951 5h-1.122l-.39-1.15h-2l-.39 1.15h-1.073l1.951-5h1.073zm2.878 2h.586c.487 0 .78-.25.78-.65 0-.25-.195-.6-.78-.6-.39 0-.732.1-1.122.25l-.098-.85c.488-.15.878-.25 1.415-.25 1.122 0 1.658.55 1.658 1.25 0 .5-.244 1-.829 1.15.536.1.976.45.976 1.2 0 1.4-1.513 1.5-2 1.5-.586 0-.927-.15-1.415-.3l.097-.85c.683.3 1.122.35 1.318.35.731 0 .975-.4.975-.65 0-.75-.78-.75-.927-.75h-.585l-.049-.8zm4.342 2.2h.536c.634 0 .878-.35.878-.7s-.195-.7-.878-.7h-.536v1.4zm0-2.2h.487c.635 0 .781-.4.781-.6 0-.15-.049-.6-.78-.6h-.44l-.048 1.2zm.634-2c.927 0 1.61.4 1.61 1.25 0 .75-.44 1.05-.78 1.15.633.1 1.023.55 1.023 1.2 0 .6-.341 1.4-1.902 1.4h-1.56V8h1.609zm3.658 0v3.8l.342-.75L65.073 8h1.17v5h-.975v-2.6l.049-1.2h-.049l-.341.75L63.219 13h-1.17V8h.975zm7.659 0v.9h-1.415V13h-.975V8.9h-1.415V8h3.805zm1.56 0v3.8l.342-.75L74.293 8h1.22v5h-1.025v-2.6l.049-1.2h-.05l-.34.75L72.438 13h-1.17V8h.975zm6.684.8h-.586c-.829 0-.926.5-.926.8 0 .8.78.8.926.8h.537l.049-1.6zM79.95 13h-.975v-1.85h-.586L77.463 13h-1.17l1.17-2.05c-.39-.1-.975-.45-.975-1.4C76.488 8 78.098 8 78.439 8H80v5h-.049zm-69.853 2.6H6.584v1.9h3.513c.78 0 1.073-.45 1.073-.95.049-.5-.244-.95-1.073-.95zm17.268-.05h-3.17v1.95h3.17c.78 0 1.073-.45 1.073-1 0-.5-.293-.95-1.073-.95zm-16.44-2.1c0-.5-.292-1-1.072-1h-3.22v1.9h3.22c.78 0 1.073-.4 1.073-.9z"/> <path fill="#3989C0" d="M10.732 0L0 11v13h29.707L40.44 13V0H10.732zm-.683 19h-5.17v-8h4.877c2.049 0 2.927.9 2.927 2.2 0 .75-.293 1.3-.927 1.65.878.35 1.22 1 1.22 1.85 0 1.3-.83 2.3-2.927 2.3zm7.707 0h-3.854v-1.5h3.659c1.073 0 1.902-.7 2.146-1.8h-4.975v-1.45h5.024c-.293-1.05-1.073-1.75-2.195-1.75h-3.707V11h3.853c2.293 0 3.854 1.6 3.854 4 0 2.35-1.561 4-3.805 4zm9.561 0h-4.83v-8h7.27v1.5h-5.562v1.6h3.17c2.05 0 2.83 1.05 2.83 2.45 0 1.4-.83 2.45-2.878 2.45z"/> </symbol>
</svg>